<?xml version="1.0" encoding="utf-8"?>
<!-- Generator: Adobe Illustrator 27.5.0, SVG Export Plug-In . SVG Version: 6.00 Build 0)  -->
<svg version="1.1" xmlns="http://www.w3.org/2000/svg" xmlns:xlink="http://www.w3.org/1999/xlink" x="0px" y="0px"
	 viewBox="0 0 500 500" style="enable-background:new 0 0 500 500;" xml:space="preserve">
<g id="Background_Simple">
	<g>
		<path style="fill:#92E3A9;" d="M482.767,243.253c-5.184,43.903-25.23,94.949-65.266,118.399
			c-60.491,35.438-55.427,89.944-173.499,113.64c-18.409,3.696-35.879,5.252-52.352,4.944c-8.855-0.164-17.428-0.878-25.695-2.095
			C90.913,467.179,40.414,415.018,21.886,352.053c-24.381-82.81,24.302-137.024,56.571-169.688
			c32.269-32.664,55.902-134.44,171.792-158.647c17.67-3.683,35.74-5.563,53.805-5.112c41.233,1.012,86.207,14.551,117.327,42.811
			c2.337,2.123,4.609,4.325,6.824,6.593C471.459,112.407,489.838,183.399,482.767,243.253z"/>
		<path style="opacity:0.7;fill:#FFFFFF;" d="M482.767,243.253c-5.184,43.903-25.23,94.949-65.266,118.399
			c-60.491,35.438-55.427,89.944-173.499,113.64c-18.409,3.696-35.879,5.252-52.352,4.944c-8.855-0.164-17.428-0.878-25.695-2.095
			C90.913,467.179,40.414,415.018,21.886,352.053c-24.381-82.81,24.302-137.024,56.571-169.688
			c32.269-32.664,55.902-134.44,171.792-158.647c17.67-3.683,35.74-5.563,53.805-5.112c41.233,1.012,86.207,14.551,117.327,42.811
			c2.337,2.123,4.609,4.325,6.824,6.593C471.459,112.407,489.838,183.399,482.767,243.253z"/>
	</g>
</g>
<g id="Floor">
	<g>
		<line style="fill:none;stroke:#263238;stroke-miterlimit:10;" x1="472.87" y1="454.567" x2="485.336" y2="454.567"/>
		<line style="fill:none;stroke:#263238;stroke-miterlimit:10;" x1="12.264" y1="454.567" x2="462.887" y2="454.567"/>
	</g>
</g>
<g id="Plant">
	<g>
		<g>
			
				<path style="fill:#92E3A9;stroke:#263238;stroke-width:0.75;stroke-linecap:round;stroke-linejoin:round;stroke-miterlimit:10;" d="
				M403.623,306.753c0,0-2.458,6.758-7.68,7.679c-5.222,0.922-14.437-9.215-8.601-14.437
				C393.179,294.773,401.166,303.067,403.623,306.753z"/>
			
				<path style="fill:#92E3A9;stroke:#263238;stroke-width:0.75;stroke-linecap:round;stroke-linejoin:round;stroke-miterlimit:10;" d="
				M411.61,273.577c0,0-7.68,18.738-4.608,27.953c3.072,9.215,22.117,15.973,27.646,3.993c5.529-11.98-6.758-28.875-11.366-32.561
				C418.675,269.277,413.146,270.505,411.61,273.577z"/>
			
				<path style="fill:#92E3A9;stroke:#263238;stroke-width:0.75;stroke-linecap:round;stroke-linejoin:round;stroke-miterlimit:10;" d="
				M456.458,281.564c0,0-13.209,11.98-14.745,23.96c-1.536,11.98,7.372,16.281,16.588,14.745
				c9.215-1.536,13.823-24.881,11.059-35.633C466.595,273.884,456.458,281.564,456.458,281.564z"/>
			<g>
				
					<path style="fill:#92E3A9;stroke:#263238;stroke-width:0.75;stroke-linecap:round;stroke-linejoin:round;stroke-miterlimit:10;" d="
					M458.916,347.915c0,0-14.745,0.615-15.359,7.68c-0.614,7.065,6.451,8.601,13.516,2.458
					C464.138,351.908,465.059,348.222,458.916,347.915z"/>
				<path style="fill:none;stroke:#263238;stroke-width:0.75;stroke-miterlimit:10;" d="M443.801,357.278
					c0,0,11.62-5.316,16.853-6.24"/>
			</g>
			<g>
				
					<path style="fill:#92E3A9;stroke:#263238;stroke-width:0.75;stroke-linecap:round;stroke-linejoin:round;stroke-miterlimit:10;" d="
					M462.203,394.145c0,0-10.831-10.024-16.275-5.479c-5.444,4.545-1.552,10.639,7.786,11.318
					C463.052,400.663,466.316,398.718,462.203,394.145z"/>
				<path style="fill:none;stroke:#263238;stroke-width:0.75;stroke-miterlimit:10;" d="M444.906,390.026
					c0,0,11.963,4.493,16.307,7.554"/>
			</g>
			<g>
				
					<path style="fill:#92E3A9;stroke:#263238;stroke-width:0.75;stroke-linecap:round;stroke-linejoin:round;stroke-miterlimit:10;" d="
					M405.072,391.193c0,0,14.93-13.818,22.434-7.552c7.504,6.265,2.14,14.665-10.732,15.602
					C403.902,400.179,399.402,397.497,405.072,391.193z"/>
				<path style="fill:none;stroke:#263238;stroke-width:0.75;stroke-miterlimit:10;" d="M428.915,385.515
					c0,0-16.49,6.194-22.479,10.413"/>
			</g>
			
				<path style="fill:#92E3A9;stroke:#263238;stroke-width:0.75;stroke-linecap:round;stroke-linejoin:round;stroke-miterlimit:10;" d="
				M422.361,362.659c0,0-1.536,7.372-7.065,10.137c-5.529,2.765-15.359-3.072-10.137-11.98
				C410.381,351.908,419.597,358.973,422.361,362.659z"/>
			
				<path style="fill:#92E3A9;stroke:#263238;stroke-width:0.75;stroke-linecap:round;stroke-linejoin:round;stroke-miterlimit:10;" d="
				M409.46,339.621c0,0-2.765-6.144-13.516-2.15c-10.751,3.993-15.052,10.137-8.294,12.287
				C394.408,351.908,409.46,339.621,409.46,339.621z"/>
			<path style="fill:none;stroke:#263238;stroke-width:0.75;stroke-miterlimit:10;" d="M407.401,339.341
				c0,0-11.389,1.231-17.546,6.464"/>
			
				<path style="fill:#92E3A9;stroke:#263238;stroke-width:0.75;stroke-linecap:round;stroke-linejoin:round;stroke-miterlimit:10;" d="
				M440.178,265.898c0,0,1.843,4.301,5.529,3.379c3.686-0.921,4.608-6.451,10.444-4.915c5.836,1.536,10.751,8.294,10.751,5.222
				s-7.372-11.059-15.666-11.059C442.942,258.525,440.485,261.904,440.178,265.898z"/>
			<path style="fill:none;stroke:#263238;stroke-width:0.75;stroke-miterlimit:10;" d="M409.46,339.621
				c0,0,13.227-2.539,18.735,12.149c0.54,1.441,0.997,2.948,1.381,4.495"/>
			
				<path style="fill:#92E3A9;stroke:#263238;stroke-width:0.75;stroke-linecap:round;stroke-linejoin:round;stroke-miterlimit:10;" d="
				M464.662,325.392c0,0,2.764-6.144,13.516-2.151c10.751,3.993,15.052,10.137,8.294,12.287
				C479.714,337.679,464.662,325.392,464.662,325.392z"/>
			<path style="fill:none;stroke:#263238;stroke-width:0.75;stroke-miterlimit:10;" d="M467.118,325.797
				c0,0,11.081-0.616,16.314,5.849"/>
			<path style="fill:none;stroke:#263238;stroke-width:0.75;stroke-miterlimit:10;" d="M464.662,325.392
				c0,0-4.385-0.842-9.156,1.247"/>
			<path style="fill:none;stroke:#263238;stroke-width:0.75;stroke-miterlimit:10;" d="M416.511,314.372
				c-6.483-6.62-12.887-7.619-12.887-7.619s-9.459-2.503-13.152,0.883"/>
			<g>
				
					<line style="fill:none;stroke:#263238;stroke-width:0.75;stroke-miterlimit:10;" x1="417.827" y1="280.344" x2="417.251" y2="277.777"/>
				<path style="fill:none;stroke:#263238;stroke-width:0.75;stroke-miterlimit:10;" d="M432.785,416.145c0,0,1.377-52.9,0-68.965
					c-1.377-16.065-7.803-34.884-7.803-34.884l-6.546-29.231"/>
				
					<line style="fill:none;stroke:#263238;stroke-width:0.75;stroke-miterlimit:10;" x1="460.086" y1="291.702" x2="461.27" y2="289.166"/>
				<path style="fill:none;stroke:#263238;stroke-width:0.75;stroke-miterlimit:10;" d="M435.998,416.087
					c0,0,0.459-48.252,2.295-62.022c1.836-13.77,9.18-35.343,9.18-35.343l11.27-24.143"/>
				<path style="fill:none;stroke:#263238;stroke-width:0.75;stroke-miterlimit:10;" d="M443.801,357.278
					c0,0-3.213,27.663-5.049,58.875"/>
				<path style="fill:none;stroke:#263238;stroke-width:0.75;stroke-miterlimit:10;" d="M428.195,416.087
					c0,0,0.918-44.121-0.918-50.088c-1.836-5.967-4.915-3.34-4.915-3.34s-8.496,0.999-11.574,5.925"/>
				<path style="fill:none;stroke:#263238;stroke-width:0.75;stroke-miterlimit:10;" d="M430.304,359.702
					c2.401,13.456,0.186,56.431,0.186,56.431"/>
				<path style="fill:none;stroke:#263238;stroke-width:0.75;stroke-miterlimit:10;" d="M452.903,328.082
					c-2.658,1.819-5.213,4.756-6.977,9.459c-5.508,14.688-4.88,78.613-4.88,78.613"/>
				<path style="fill:none;stroke:#263238;stroke-width:0.75;stroke-miterlimit:10;" d="M418.109,316.124
					c2.869,3.369,5.651,7.925,7.79,14.073c7.344,21.114,10.098,75.792,8.721,85.89"/>
				<path style="fill:none;stroke:#263238;stroke-width:0.75;stroke-miterlimit:10;" d="M436.761,335.883
					c-0.447,26.647-0.764,80.204-0.764,80.204"/>
			</g>
			<path style="fill:none;stroke:#263238;stroke-width:0.75;stroke-miterlimit:10;" d="M436.817,332.567
				c0.303-17.62,0.66-34.865,1.016-44.14c0.918-23.868,2.344-22.53,2.344-22.53s1.699-5.359,11.242-4.743"/>
			<g>
				
					<path style="fill:#92E3A9;stroke:#263238;stroke-width:0.75;stroke-linecap:round;stroke-linejoin:round;stroke-miterlimit:10;" d="
					M425.063,352.69c0,0-7.68-6.848-4.608-10.216c3.072-3.368,22.117-5.838,27.646-1.459c5.529,4.378-6.758,10.553-11.366,11.9
					C432.128,354.261,426.599,353.812,425.063,352.69z"/>
				<path style="fill:none;stroke:#263238;stroke-width:0.75;stroke-miterlimit:10;" d="M432.155,347.082
					c-0.107,0.693-0.17,1.382-0.17,2.045"/>
				<path style="fill:none;stroke:#263238;stroke-width:0.75;stroke-miterlimit:10;" d="M434.795,339.087
					c0,0-1.143,2.285-1.971,5.087"/>
			</g>
			<g>
				
					<path style="fill:#92E3A9;stroke:#263238;stroke-width:0.75;stroke-linecap:round;stroke-linejoin:round;stroke-miterlimit:10;" d="
					M425.063,397.466c0,0-7.68-6.848-4.608-10.216c3.072-3.368,22.117-5.838,27.646-1.459c5.529,4.378-6.758,10.553-11.366,11.9
					C432.128,399.037,426.599,398.588,425.063,397.466z"/>
				<path style="fill:none;stroke:#263238;stroke-width:0.75;stroke-miterlimit:10;" d="M434.795,383.863
					c0,0-2.811,5.622-2.811,10.04"/>
			</g>
			<g>
				
					<path style="fill:#92E3A9;stroke:#263238;stroke-width:0.75;stroke-linecap:round;stroke-linejoin:round;stroke-miterlimit:10;" d="
					M430.78,378.529c0,0-5.214-4.65-3.128-6.936c2.086-2.287,15.016-3.964,18.77-0.991c3.754,2.973-4.588,7.165-7.717,8.079
					C435.577,379.596,431.823,379.291,430.78,378.529z"/>
				<path style="fill:none;stroke:#263238;stroke-width:0.75;stroke-miterlimit:10;" d="M437.388,369.293
					c0,0-1.909,3.817-1.909,6.816"/>
			</g>
		</g>
		
			<rect x="423.567" y="408.471" style="fill:#263238;stroke:#263238;stroke-width:0.75;stroke-linecap:round;stroke-linejoin:round;stroke-miterlimit:10;" width="20.788" height="46.096"/>
	</g>
</g>
<g id="Shapes">
	<g>
		<polyline style="fill:none;stroke:#263238;stroke-width:0.75;stroke-miterlimit:10;" points="59.774,160.531 35.686,160.531 
			35.686,84.992 111.224,84.992 111.224,160.531 64.206,160.531 		"/>
		
			<rect x="21.602" y="172.693" style="fill:none;stroke:#263238;stroke-width:0.75;stroke-miterlimit:10;" width="26.246" height="26.246"/>
		<polyline style="fill:none;stroke:#263238;stroke-width:0.75;stroke-miterlimit:10;" points="76.656,204.507 76.656,181.016 
			156.035,181.016 156.035,260.395 76.656,260.395 76.656,212.263 		"/>
		<polyline style="fill:none;stroke:#263238;stroke-width:0.75;stroke-miterlimit:10;" points="43.152,291.763 10.719,291.763 
			10.719,234.148 68.334,234.148 68.334,291.763 48.693,291.763 		"/>
		
			<rect x="162.437" y="237.349" style="fill:none;stroke:#263238;stroke-width:0.75;stroke-miterlimit:10;" width="55.053" height="55.054"/>
	</g>
</g>
<g id="Calendar">
	<g>
		<path style="fill:none;stroke:#263238;stroke-width:0.75;stroke-miterlimit:10;" d="M387.77,236.869h-19.569v-74.921h12.47v2.568
			c0,0.924,0.755,1.678,1.678,1.678c0.935,0,1.69-0.755,1.69-1.678v-2.568h14.408v2.568c0,0.924,0.743,1.678,1.678,1.678
			c0.924,0,1.678-0.755,1.678-1.678v-2.568h14.408v2.568c0,0.924,0.755,1.678,1.678,1.678c0.924,0,1.678-0.755,1.678-1.678v-2.568
			h14.408v2.568c0,0.924,0.755,1.678,1.678,1.678c0.935,0,1.678-0.755,1.678-1.678v-2.568h14.408v2.568
			c0,0.924,0.755,1.678,1.678,1.678c0.935,0,1.69-0.755,1.69-1.678v-2.568h12.47v15.964"/>
		<polyline style="fill:none;stroke:#263238;stroke-width:0.75;stroke-miterlimit:10;" points="467.578,185.3 467.578,236.869 
			396.635,236.869 		"/>
		<g>
			
				<rect x="379.245" y="182.448" style="fill:none;stroke:#263238;stroke-width:0.75;stroke-miterlimit:10;" width="11.041" height="11.041"/>
			
				<rect x="395.807" y="182.448" style="fill:none;stroke:#263238;stroke-width:0.75;stroke-miterlimit:10;" width="11.042" height="11.041"/>
			
				<rect x="412.369" y="182.448" style="fill:none;stroke:#263238;stroke-width:0.75;stroke-miterlimit:10;" width="11.041" height="11.041"/>
			
				<rect x="428.931" y="182.448" style="fill:none;stroke:#263238;stroke-width:0.75;stroke-miterlimit:10;" width="11.042" height="11.041"/>
			
				<rect x="445.493" y="182.448" style="fill:none;stroke:#263238;stroke-width:0.75;stroke-miterlimit:10;" width="11.041" height="11.041"/>
		</g>
		<g>
			
				<rect x="379.245" y="200.587" style="fill:none;stroke:#263238;stroke-width:0.75;stroke-miterlimit:10;" width="11.041" height="11.041"/>
			
				<rect x="395.807" y="200.587" style="fill:none;stroke:#263238;stroke-width:0.75;stroke-miterlimit:10;" width="11.042" height="11.041"/>
			
				<rect x="412.369" y="200.587" style="fill:none;stroke:#263238;stroke-width:0.75;stroke-miterlimit:10;" width="11.041" height="11.041"/>
			
				<rect x="428.931" y="200.587" style="fill:none;stroke:#263238;stroke-width:0.75;stroke-miterlimit:10;" width="11.042" height="11.041"/>
			
				<rect x="445.493" y="200.587" style="fill:none;stroke:#263238;stroke-width:0.75;stroke-miterlimit:10;" width="11.041" height="11.041"/>
		</g>
		<g>
			
				<rect x="379.245" y="218.727" style="fill:none;stroke:#263238;stroke-width:0.75;stroke-miterlimit:10;" width="11.041" height="11.042"/>
			
				<rect x="395.807" y="218.727" style="fill:none;stroke:#263238;stroke-width:0.75;stroke-miterlimit:10;" width="11.042" height="11.042"/>
			
				<rect x="412.369" y="218.727" style="fill:none;stroke:#263238;stroke-width:0.75;stroke-miterlimit:10;" width="11.041" height="11.042"/>
			
				<rect x="428.931" y="218.727" style="fill:none;stroke:#263238;stroke-width:0.75;stroke-miterlimit:10;" width="11.042" height="11.042"/>
			
				<rect x="445.493" y="218.727" style="fill:none;stroke:#263238;stroke-width:0.75;stroke-miterlimit:10;" width="11.041" height="11.042"/>
		</g>
		<g>
			<path style="fill:none;stroke:#263238;stroke-width:0.75;stroke-miterlimit:10;" d="M384.04,154.908v9.609
				c0,0.924-0.755,1.678-1.69,1.678c-0.924,0-1.678-0.755-1.678-1.678v-9.609c0-0.924,0.755-1.678,1.678-1.678
				C383.285,153.229,384.04,153.984,384.04,154.908z"/>
			<path style="fill:none;stroke:#263238;stroke-width:0.75;stroke-miterlimit:10;" d="M401.804,154.908v9.609
				c0,0.924-0.755,1.678-1.678,1.678c-0.935,0-1.678-0.755-1.678-1.678v-9.609c0-0.924,0.743-1.678,1.678-1.678
				C401.049,153.229,401.804,153.984,401.804,154.908z"/>
			<path style="fill:none;stroke:#263238;stroke-width:0.75;stroke-miterlimit:10;" d="M419.568,154.908v9.609
				c0,0.924-0.755,1.678-1.678,1.678c-0.924,0-1.678-0.755-1.678-1.678v-9.609c0-0.924,0.755-1.678,1.678-1.678
				C418.813,153.229,419.568,153.984,419.568,154.908z"/>
			<path style="fill:none;stroke:#263238;stroke-width:0.75;stroke-miterlimit:10;" d="M437.332,154.908v9.609
				c0,0.924-0.743,1.678-1.678,1.678c-0.924,0-1.678-0.755-1.678-1.678v-9.609c0-0.924,0.755-1.678,1.678-1.678
				C436.589,153.229,437.332,153.984,437.332,154.908z"/>
			<path style="fill:none;stroke:#263238;stroke-width:0.75;stroke-miterlimit:10;" d="M455.108,154.908v9.609
				c0,0.924-0.755,1.678-1.69,1.678c-0.924,0-1.678-0.755-1.678-1.678v-9.609c0-0.924,0.755-1.678,1.678-1.678
				C454.353,153.229,455.108,153.984,455.108,154.908z"/>
		</g>
	</g>
</g>
<g id="Gears">
	<g>
		<path style="fill:none;stroke:#263238;stroke-width:0.75;stroke-miterlimit:10;" d="M329.173,73.732l-4.278-4.747l-7.67,5.572
			l3.13,5.427c-2.424,2.387-4.485,5.139-6.097,8.169l-6.253-1.326l-2.93,9.016l5.719,2.549c-0.296,1.792-0.457,3.63-0.457,5.505
			c0,1.591,0.118,3.154,0.333,4.686l-5.843,2.604l2.93,9.016l6.124-1.299c1.538,3.07,3.531,5.87,5.894,8.314l-3.199,5.546
			l7.67,5.572l4.192-4.651c2.984,1.553,6.229,2.668,9.654,3.267l0.672,6.363h9.48l0.657-6.223c3.445-0.514,6.717-1.553,9.737-3.03
			l4.278,4.747l7.67-5.572l-3.13-5.426c2.424-2.387,4.485-5.139,6.097-8.169l6.253,1.326l2.93-9.016l-5.719-2.549
			c0.296-1.792,0.457-3.629,0.457-5.505c0-1.591-0.118-3.154-0.333-4.686l5.843-2.605l-2.93-9.016l-6.124,1.299
			c-1.538-3.07-3.531-5.87-5.894-8.314l3.199-5.546l-7.67-5.572l-4.192,4.651c-2.984-1.553-6.229-2.668-9.654-3.267l-0.672-6.363
			h-9.48l-0.657,6.223c-1.657,0.247-3.275,0.616-4.843,1.096 M359.75,114.582c-3.434,5.083-9.249,8.425-15.845,8.425
			c-10.553,0-19.108-8.555-19.108-19.108c0-10.553,8.555-19.108,19.108-19.108c10.553,0,19.108,8.555,19.108,19.108
			c0,1.842-0.26,3.622-0.747,5.307"/>
		<path style="fill:none;stroke:#263238;stroke-width:0.75;stroke-miterlimit:10;" d="M423.295,73.634
			c0-1.013-0.076-2.007-0.212-2.982l3.719-1.658l-1.865-5.738l-3.898,0.827c-0.979-1.954-2.247-3.736-3.751-5.291l2.036-3.53
			l-4.881-3.547l-2.668,2.96c-1.899-0.988-3.965-1.698-6.144-2.079l-0.428-4.049h-6.034l-0.418,3.96
			c-2.192,0.327-4.275,0.988-6.197,1.928l-2.723-3.021l-4.881,3.547l1.992,3.454c-1.543,1.519-2.854,3.271-3.88,5.199l-3.98-0.844
			l-1.864,5.738l3.64,1.623c-0.188,1.141-0.291,2.31-0.291,3.504c0,1.013,0.076,2.007,0.212,2.982l-3.719,1.658l1.865,5.738
			l3.898-0.827c0.979,1.954,2.247,3.736,3.751,5.291l-2.036,3.53l4.881,3.546l2.668-2.96c1.899,0.988,3.965,1.698,6.144,2.079
			l0.427,4.049h6.034l0.418-3.96c2.192-0.327,4.275-0.988,6.197-1.928l2.723,3.021l4.881-3.547l-1.992-3.454
			c1.543-1.519,2.855-3.271,3.881-5.199l3.98,0.844l1.865-5.738l-3.64-1.622C423.192,75.997,423.295,74.828,423.295,73.634z
			 M394.966,63.664c1.973-1.381,4.374-2.191,6.965-2.191c6.716,0,12.161,5.445,12.161,12.161s-5.445,12.161-12.161,12.161
			c-6.716,0-12.161-5.445-12.161-12.161c0-1.957,0.462-3.806,1.284-5.444"/>
	</g>
</g>
<g id="Character_1">
	<g>
		<rect x="71.691" y="320.447" style="fill:#263238;stroke:#263238;stroke-miterlimit:10;" width="138.752" height="4.708"/>
		<rect x="75.297" y="323.683" style="fill:#263238;stroke:#263238;stroke-miterlimit:10;" width="2.891" height="130.884"/>
		<g>
			
				<line style="fill:none;stroke:#263238;stroke-width:3;stroke-miterlimit:10;" x1="108.545" y1="352.113" x2="202.509" y2="414.274"/>
			
				<line style="fill:none;stroke:#263238;stroke-width:3;stroke-miterlimit:10;" x1="202.509" y1="352.113" x2="108.545" y2="414.274"/>
		</g>
		<rect x="106.618" y="323.683" style="fill:#263238;stroke:#263238;stroke-miterlimit:10;" width="2.891" height="130.884"/>
		<rect x="170.224" y="323.683" style="fill:#263238;stroke:#263238;stroke-miterlimit:10;" width="2.891" height="130.884"/>
		<rect x="201.546" y="323.683" style="fill:#263238;stroke:#263238;stroke-miterlimit:10;" width="2.891" height="130.884"/>
		<g>
			
				<line style="fill:none;stroke:#263238;stroke-width:3;stroke-miterlimit:10;" x1="76.742" y1="352.113" x2="170.706" y2="414.274"/>
			
				<line style="fill:none;stroke:#263238;stroke-width:3;stroke-miterlimit:10;" x1="170.706" y1="352.113" x2="76.742" y2="414.274"/>
		</g>
		
			<line style="fill:none;stroke:#263238;stroke-width:3;stroke-miterlimit:10;" x1="204.451" y1="414.274" x2="109.523" y2="414.274"/>
		
			<line style="fill:none;stroke:#263238;stroke-width:3;stroke-miterlimit:10;" x1="171.67" y1="414.274" x2="76.742" y2="414.274"/>
	</g>
	<g>
		<g>
			<path style="fill:#FFFFFF;stroke:#263238;stroke-miterlimit:10;" d="M110.615,236.983c0,0,2.397,17,2.397,18.089
				c0,1.09-1.962,10.026-1.09,16.782c0.872,6.756,4.577,34.902,4.577,36.209c0,1.308-0.73,3.319-2.311,7.273
				c-1.582,3.954-1.45,7.907-0.923,9.357c0.527,1.45,2.768,1.45,5.14,0c2.372-1.45,4.744-3.427,5.008-7.644
				c0.264-4.217-0.659-8.303-0.791-10.28c-0.132-1.977,2.372-28.715,3.558-34.25c1.186-5.535,1.054-19.768,1.054-19.768
				l1.713-15.156L110.615,236.983z"/>
			<path style="fill:#263238;stroke:#263238;stroke-miterlimit:10;" d="M118.406,324.694c2.372-1.45,4.744-3.427,5.008-7.644
				c0.121-1.94-0.009-3.849-0.197-5.541c-0.579,1.685-1.579,4.379-2.82,4.689c-1.611,0.403-6.208-0.861-6.208-0.861
				c-1.582,3.954-1.45,7.907-0.923,9.357C113.793,326.144,116.033,326.144,118.406,324.694z"/>
		</g>
		<path style="fill:#FFFFFF;stroke:#263238;stroke-miterlimit:10;" d="M165.973,230.24c0,0,4.834,16.112,4.834,16.716
			s5.981,53.533,7.592,56.352c1.611,2.82,8.459,13.896,10.271,14.702c1.813,0.806,3.826,2.014,2.215,2.819
			c-1.611,0.806-7.452,1.41-9.667,1.208c-2.215-0.201-8.257-5.841-10.473-6.646c-2.215-0.806-5.639-1.41-5.035-4.028
			c0.604-2.618,3.021-6.042,3.222-8.862c0.201-2.819-5.779-24.129-8.196-33.192c-2.417-9.063-3.827-18.528-3.827-18.528
			l-7.452-13.292L165.973,230.24z"/>
		<path style="fill:#263238;stroke:#263238;stroke-miterlimit:10;" d="M188.67,318.01c-0.806-0.358-2.608-2.749-4.503-5.541
			l-3.352,2.117c0,0-6.847-3.021-9.466-6.243c-1.243-1.53-2.25-2.685-2.974-3.488c-0.804,2.232-2.221,4.588-2.665,6.509
			c-0.604,2.618,2.82,3.222,5.035,4.028c2.215,0.806,8.257,6.445,10.473,6.646c2.215,0.201,8.056-0.403,9.667-1.208
			C192.496,320.024,190.482,318.816,188.67,318.01z"/>
		<path style="fill:#FFFFFF;stroke:#263238;stroke-miterlimit:10;" d="M186.092,128.611l13.034,12.86l34.758-2.433l0.348,4.866
			c0,0-36.496,11.122-37.886,11.122c-1.39,0-19.464-18.596-19.464-18.596L186.092,128.611z"/>
		<path style="fill:#263238;stroke:#263238;stroke-miterlimit:10;" d="M119.705,160.762c0,0-10.615,10.183-15.628,21.298
			c-5.013,11.115-3.923,21.141-2.179,28.115c1.744,6.974,6.756,29.859,6.756,29.859s26.372,1.09,38.141-0.654
			c11.769-1.744,20.923-6.32,20.923-6.32s-7.41-30.294-9.808-38.359c-2.397-8.064-4.577-14.384-4.577-14.384l0.872-11.115
			L119.705,160.762z"/>
		<path style="fill:#92E3A9;stroke:#263238;stroke-miterlimit:10;" d="M152.725,102.543l-4.171,9.559c0,0-9.385,4.692-13.208,6.778
			c-3.823,2.085-6.256,5.04-7.647,8.863c-1.39,3.823-4.519,24.504-4.692,25.026c-0.174,0.521-3.476,5.909-3.302,7.994
			c0.174,2.085,7.821,12.339,18.248,13.382c10.427,1.043,14.378-1.805,14.726-2.327c0.348-0.521,6.824-9.491,8.388-10.186
			c1.564-0.695,7.994-5.04,9.558-6.256c1.564-1.217,6.256-15.989,6.256-15.989l9.211-10.775c0,0-1.912-3.302-8.689-8.516
			C170.625,114.882,152.725,102.543,152.725,102.543z"/>
		<path style="fill:#FFFFFF;stroke:#263238;stroke-miterlimit:10;" d="M148.554,112.101c0,0-2.05,1.025-4.624,2.33
			c1.273,1.858,5.146,7.897,6.015,13.833c1.043,7.125,1.043,8.516,1.043,8.516l17.205-0.174c0,0,2.505-11.765-0.821-23.819
			c-7.134-5.065-14.647-10.244-14.647-10.244L148.554,112.101z"/>
		<path style="fill:#263238;stroke:#263238;stroke-miterlimit:10;" d="M178.204,80.86c0,0-3.96-3.455-9.186-3.455
			c-4.264,0-15.046,2.984-19.322,6.596c-4.276,3.612-6.018,10.994-6.652,16.648s-1.425,6.596,0.95,9.266
			c2.376,2.67,6.018,3.612,7.127,3.926c1.109,0.314,1.109-2.984,1.901-4.083c0.792-1.099,3.326-4.397,3.326-4.397
			s3.959-3.612,6.177-3.612s13.145-2.67,14.412-3.612c1.267-0.942,2.376,0.314,2.376,0.314l0.95,5.811c0,0,4.276,0.471,6.018-0.628
			c1.742-1.099,3.168-5.34,2.851-7.853C188.246,88.749,184.222,80.232,178.204,80.86z"/>
		<g>
			<path style="fill:#FFFFFF;stroke:#263238;stroke-miterlimit:10;" d="M153.594,111.928c0.695,2.954,3.476,8.863,3.823,10.427
				c0.347,1.564,2.781,3.302,5.214,2.781c2.433-0.521,9.732-3.649,11.818-6.083c2.085-2.433,3.302-6.951,3.65-8.689
				c0.348-1.738,3.476-5.561,3.823-7.647c0.348-2.085-1.738-10.775-1.738-10.775s-6.778,3.997-12.165,5.909
				c-5.387,1.912-9.732,0.695-9.732,0.695s0,1.738-1.043,1.564c-1.043-0.174,0-1.043-2.085-1.912
				c-2.085-0.869-3.997,1.39-4.171,3.65c-0.174,2.259,1.043,4.866,2.085,5.561"/>
			<path style="fill:#263238;" d="M167.758,107.928c-0.386,0.931-1.166,1.492-1.742,1.253c-0.576-0.239-0.731-1.187-0.345-2.118
				s1.166-1.492,1.742-1.253C167.99,106.049,168.144,106.997,167.758,107.928z"/>
			<path style="fill:#263238;" d="M176.186,109.495c-0.386,0.931-1.166,1.492-1.742,1.253c-0.576-0.239-0.731-1.187-0.345-2.118
				c0.386-0.931,1.166-1.492,1.742-1.253C176.417,107.615,176.572,108.564,176.186,109.495z"/>
			<path style="fill:none;stroke:#263238;stroke-miterlimit:10;" d="M164.542,103.412c0,0,3.128-1.738,6.083,0.348"/>
			<path style="fill:none;stroke:#263238;stroke-miterlimit:10;" d="M175.665,105.15c0,0,2.607-1.043,3.65,1.564"/>
			<path style="fill:none;stroke:#263238;stroke-miterlimit:10;" d="M172.884,109.321c0,0-1.217,1.912-1.39,2.954
				c-0.174,1.043,0.869,2.954-0.869,3.65c-1.738,0.695-3.823-0.521-3.823-1.043"/>
			<path style="fill:none;stroke:#263238;stroke-miterlimit:10;" d="M166.975,118.532c0,0-3.997-0.695-4.519-4.692"/>
		</g>
		<g>
			<path style="fill:#B0B0B0;stroke:#263238;stroke-miterlimit:10;" d="M252.666,147.869h-54.99c-4.779,0-8.652-3.874-8.652-8.652
				V82.112c0-4.778,3.874-8.652,8.652-8.652h54.99c4.779,0,8.652,3.874,8.652,8.652v57.104
				C261.318,143.995,257.444,147.869,252.666,147.869z"/>
			<path style="fill:#FFFFFF;stroke:#263238;stroke-miterlimit:10;" d="M269.577,147.869h-54.99c-4.778,0-8.652-3.874-8.652-8.652
				V82.112c0-4.778,3.874-8.652,8.652-8.652h54.99c4.779,0,8.652,3.874,8.652,8.652v57.104
				C278.229,143.995,274.355,147.869,269.577,147.869z"/>
		</g>
		<path style="fill:#FFFFFF;stroke:#263238;stroke-miterlimit:10;" d="M131.001,141.819c0,0,22.071,28.501,24.157,29.023
			c2.085,0.521,48.14-14.424,49.009-14.772c0.869-0.348,12.513-4.518,13.034-4.866c0.521-0.348,6.778-2.085,7.299-2.607
			c0.521-0.521-2.086-0.869-2.086-0.869h-14.251c0,0,3.476-2.781,4.692-3.823c1.216-1.043,0.869-3.997-0.348-3.128
			c-1.217,0.869-4.692,3.476-4.692,3.476s-5.561,1.564-6.43,2.781c-0.869,1.217-3.302,6.778-3.302,6.778l-36.148,2.954l-16.51-21.55
			L131.001,141.819z"/>
		<path style="fill:#92E3A9;stroke:#263238;stroke-miterlimit:10;" d="M131.349,122.007c0,0-3.997,0.695-3.823,9.037
			s1.564,13.729,1.564,13.729l19.117-7.299c0,0-3.128-8.689-5.214-10.949"/>
	</g>
	<g>
		<path style="fill:#92E3A9;stroke:#263238;stroke-miterlimit:10;" d="M229.058,142.038V78.195h16.631
			c2.731,0,5.32,0.211,7.764,0.631c2.443,0.421,4.611,1.222,6.502,2.403c1.892,1.183,3.376,2.865,4.453,5.045
			c1.076,2.181,1.616,5.058,1.616,8.63c0,2.575-0.382,4.743-1.143,6.503c-0.763,1.761-1.84,3.166-3.232,4.217
			c-1.393,1.052-3.062,1.761-5.005,2.128c2.469,0.315,4.544,1.117,6.227,2.404c1.681,1.288,2.956,3.009,3.823,5.162
			c0.867,2.155,1.301,4.757,1.301,7.804c0,3.31-0.434,6.161-1.301,8.552c-0.867,2.392-2.116,4.349-3.744,5.872
			c-1.629,1.524-3.639,2.653-6.03,3.389c-2.392,0.736-5.137,1.104-8.236,1.104H229.058z M243.166,103.732h2.759
			c2.154,0,3.783-0.328,4.887-0.985c1.104-0.656,1.853-1.616,2.247-2.877c0.394-1.261,0.591-2.784,0.591-4.571
			c0-1.681-0.303-3.086-0.906-4.217c-0.605-1.129-1.497-1.982-2.68-2.562c-1.183-0.578-2.667-0.867-4.454-0.867h-2.443V103.732z
			 M243.166,132.186h2.995c3.1,0,5.242-0.788,6.424-2.364s1.773-3.888,1.773-6.937c0-2.416-0.264-4.335-0.788-5.753
			c-0.526-1.419-1.393-2.456-2.601-3.113c-1.21-0.657-2.837-0.985-4.887-0.985h-2.917V132.186z"/>
	</g>
</g>
<g id="Blocks_00000148634447821166518170000009833918691978123662_">
	<g>
		<g>
			<path style="fill:#B0B0B0;stroke:#263238;stroke-miterlimit:10;" d="M262.349,454.567h-54.991c-4.778,0-8.652-3.874-8.652-8.652
				V388.81c0-4.779,3.874-8.652,8.652-8.652h54.991c4.779,0,8.652,3.874,8.652,8.652v57.104
				C271.001,450.693,267.128,454.567,262.349,454.567z"/>
			<path style="fill:#FFFFFF;stroke:#263238;stroke-miterlimit:10;" d="M279.26,454.567h-54.99c-4.779,0-8.652-3.874-8.652-8.652
				V388.81c0-4.779,3.874-8.652,8.652-8.652h54.99c4.779,0,8.652,3.874,8.652,8.652v57.104
				C287.912,450.693,284.039,454.567,279.26,454.567z"/>
		</g>
		<g>
			<path style="fill:#B0B0B0;stroke:#263238;stroke-miterlimit:10;" d="M262.349,380.581h-54.991c-4.778,0-8.652-3.874-8.652-8.652
				v-57.104c0-4.779,3.874-8.652,8.652-8.652h54.991c4.779,0,8.652,3.874,8.652,8.652v57.104
				C271.001,376.707,267.128,380.581,262.349,380.581z"/>
			<path style="fill:#263238;" d="M279.26,380.581h-54.99c-4.779,0-8.652-3.874-8.652-8.652v-57.104
				c0-4.779,3.874-8.652,8.652-8.652h54.99c4.779,0,8.652,3.874,8.652,8.652v57.104C287.912,376.707,284.039,380.581,279.26,380.581
				z"/>
		</g>
		<g>
			<path style="fill:#B0B0B0;stroke:#263238;stroke-miterlimit:10;" d="M262.349,306.594h-54.991c-4.778,0-8.652-3.874-8.652-8.652
				v-57.104c0-4.779,3.874-8.652,8.652-8.652h54.991c4.779,0,8.652,3.874,8.652,8.652v57.104
				C271.001,302.721,267.128,306.594,262.349,306.594z"/>
			<path style="fill:#92E3A9;stroke:#263238;stroke-miterlimit:10;" d="M279.26,306.594h-54.99c-4.779,0-8.652-3.874-8.652-8.652
				v-57.104c0-4.779,3.874-8.652,8.652-8.652h54.99c4.779,0,8.652,3.874,8.652,8.652v57.104
				C287.912,302.721,284.039,306.594,279.26,306.594z"/>
		</g>
	</g>
	<g>
		<path style="fill:#263238;" d="M232.698,450.147v-63.843h16.158c5.569,0,9.904,0.697,13.005,2.089
			c3.1,1.393,5.281,3.573,6.542,6.542c1.261,2.969,1.892,6.817,1.892,11.547v23.172c0,4.782-0.631,8.684-1.892,11.705
			c-1.261,3.022-3.428,5.241-6.503,6.66c-3.074,1.419-7.369,2.128-12.887,2.128H232.698z M246.806,440.374h2.207
			c2.154,0,3.705-0.315,4.65-0.946c0.946-0.63,1.537-1.576,1.773-2.837c0.236-1.261,0.355-2.838,0.355-4.729v-27.822
			c0-1.892-0.145-3.415-0.434-4.572c-0.289-1.154-0.906-1.996-1.852-2.521c-0.946-0.524-2.47-0.788-4.571-0.788h-2.128V440.374z"/>
	</g>
	<g>
		<path style="fill:#263238;" d="M232.051,302.713l12.059-63.843h16.079l11.901,63.843h-13.005l-2.128-13.477h-9.379l-2.207,13.477
			H232.051z M248.839,280.802h6.778l-3.389-24.907L248.839,280.802z"/>
	</g>
	<g>
		<path style="fill:#92E3A9;stroke:#263238;stroke-miterlimit:10;" d="M235.125,375.27v-63.843h9.931l13.084,30.739v-30.739h11.665
			v63.843h-9.537l-13.084-33.104v33.104H235.125z"/>
	</g>
</g>
<g id="Character_2">
	<g>
		<path style="fill:#D6D6D6;stroke:#263238;stroke-miterlimit:10;" d="M311.372,261.941c0,0-16.805-30.856-17.494-31.545
			c-0.689-0.689-4.684-1.24-5.372-1.102c-0.689,0.138-7.852,1.102-7.852,1.102s-8.954-0.964-9.367,0.138
			c-0.413,1.102,5.923,3.857,7.301,4.408c1.377,0.551,11.846,2.204,11.846,2.204l10.331,32.647L311.372,261.941z"/>
		<path style="fill:#263238;stroke:#263238;stroke-miterlimit:10;" d="M325.477,310.071l0.672,22.342c0,0,1.14,71.066,3.996,77.785
			c2.856,6.72,7.392,28.222,7.392,28.222s-1.68,0-1.344,2.352c0.336,2.352,0.336,5.04,0.336,5.04s-3.192,3.36-5.376,5.712
			c-2.184,2.352-7.223,3.36-5.544,5.208c1.68,1.848,6.384,2.184,10.919,2.016c4.536-0.168,8.567-3.864,10.247-4.536
			c1.68-0.672,6.552-1.176,7.223-2.688c0.672-1.512-1.008-7.896-1.008-7.896s-0.168-4.872-0.168-5.711
			c0-0.84-1.008-1.848-1.176-3.024s-2.352-33.934-2.856-36.621c-0.504-2.688,0.86-42.857,0.86-42.857s9.051,45.377,10.563,50.249
			c1.512,4.872,10.583,33.598,10.583,33.598s-1.344,2.856-0.84,3.864c0.504,1.008,3.192,5.376,3.192,5.376s2.52,5.04,3.528,8.063
			c1.008,3.024,4.704,10.079,7.727,7.895s4.368-6.887,3.696-9.575c-0.672-2.688-4.872-9.911-5.04-10.415
			c-0.168-0.504-0.84-4.704-1.176-7.727c-0.336-3.024-0.504-1.512-0.84-4.368c-0.336-2.856-2.856-38.133-2.856-38.133l-2.484-61.491
			c0,0,1.344-6.048,0.336-12.095c-1.008-6.048-2.352-10.247-2.352-10.247L325.477,310.071z"/>
		<path style="fill:#92E3A9;stroke:#263238;stroke-miterlimit:10;" d="M351.044,239.212c0,0-16.254-1.102-18.596-0.689
			c-2.342,0.413-6.199,4.408-6.199,4.408l-10.469,21.764l-3.582-3.581l-11.709,11.709c0,0,1.285,4.79,4.59,8.372
			c3.306,3.582,6.199,6.75,7.163,6.199c0.964-0.551,12.807-9.654,12.807-9.654l-0.041,25.94c0,0-2.479,5.785-1.791,6.887
			c0.689,1.102,2.893,1.928,2.893,1.928s17.77,4.684,29.203,3.719c11.433-0.964,20.249-3.444,20.663-4.408
			c0.413-0.964-0.827-7.301-0.827-7.714c0-0.413,4.821-31.407,4.821-31.407c0.315,0.328,8.091-16.836,2.755-25.208
			c-2.914-4.572-14.739-5.648-14.739-5.648L351.044,239.212z"/>
		<polygon style="fill:#263238;stroke:#263238;stroke-miterlimit:10;" points="344.366,246.696 344.983,254.365 335.685,297.833 
			340.42,306.987 348.785,297.202 347.838,255.061 353.836,249.221 348.627,242.908 		"/>
		<g>
			<line style="fill:none;stroke:#263238;stroke-miterlimit:10;" x1="315.78" y1="264.696" x2="321.796" y2="271.791"/>
			<path style="fill:none;stroke:#263238;stroke-miterlimit:10;" d="M320.375,268.003c0,0,3.314,3.788,3.314,4.419"/>
		</g>
		<g>
			<polygon style="fill:#92E3A9;stroke:#263238;stroke-miterlimit:10;" points="342.228,243.345 340.575,249.544 345.672,248.028 
							"/>
			<polygon style="fill:#92E3A9;stroke:#263238;stroke-miterlimit:10;" points="350.768,247.202 355.176,256.569 367.987,241.829 
				366.747,237.284 364.681,236.182 348.289,237.835 342.228,243.345 347.6,250.094 			"/>
			<g>
				<path style="fill:#D6D6D6;stroke:#263238;stroke-miterlimit:10;" d="M353.799,194.03c0,0-4.821,3.031-6.887,6.061
					c-2.066,3.031-1.929,6.474-2.204,7.99c-0.276,1.515-3.719,8.954-3.995,11.158c-0.276,2.204,0.826,11.571,2.204,13.775
					c1.378,2.204,5.51,2.617,5.51,2.617s-1.378,14.464-0.827,14.464s15.29-9.643,16.254-11.158c0.964-1.515,2.204-6.75,2.48-7.163
					c0.275-0.413,5.227-2.567,7.301-4.546c3.03-2.893,2.204-6.474,2.204-6.474s3.444-7.438,1.791-15.015
					c-1.653-7.576-5.372-9.643-11.571-11.846S356.967,193.204,353.799,194.03z"/>
				<path style="fill:#263238;stroke:#263238;stroke-miterlimit:10;" d="M377.629,205.739c-1.653-7.576-5.372-9.642-11.571-11.846
					s-9.091-0.689-12.26,0.138c0,0-0.822,0.519-1.928,1.335c1.447-0.132,6.535-0.408,10.744,1.696
					c4.959,2.48,7.852,8.403,6.612,9.78c-1.24,1.378-2.755,2.893-2.066,3.857c0.689,0.964,2.066,5.51,1.928,5.923
					c-0.138,0.413-2.755,4.408-2.342,4.959c0.413,0.551,2.342,1.377,2.755,0.689c0.413-0.689,1.24-2.48,3.306-2.48
					c2.066,0,3.031,0.964,3.031,0.964S379.283,213.315,377.629,205.739z"/>
				<path style="fill:#263238;" d="M349.255,210.271c-0.325,1.078-1.047,1.813-1.612,1.642c-0.565-0.17-0.759-1.182-0.434-2.26
					c0.325-1.078,1.047-1.813,1.611-1.643C349.386,208.181,349.58,209.193,349.255,210.271z"/>
				<path style="fill:#263238;" d="M357.99,213.486c-0.325,1.078-1.047,1.813-1.611,1.643c-0.565-0.17-0.759-1.182-0.434-2.26
					c0.325-1.078,1.047-1.813,1.612-1.643C358.121,211.397,358.315,212.409,357.99,213.486z"/>
				<path style="fill:none;stroke:#263238;stroke-miterlimit:10;" d="M346.774,205.05c0,0,3.168-1.102,4.959,1.653"/>
				<path style="fill:none;stroke:#263238;stroke-miterlimit:10;" d="M355.865,208.907c0,0,3.995-0.275,5.51,3.306"/>
				<path style="fill:none;stroke:#263238;stroke-miterlimit:10;" d="M351.733,208.494c0,0,0.138,2.066,0,2.48
					c-0.138,0.413-6.75,6.337-6.337,7.025c0.413,0.689,3.857,1.378,4.27,1.24"/>
				<path style="fill:none;stroke:#263238;stroke-miterlimit:10;" d="M345.947,223.096c0,0,5.234,2.48,7.576,2.204
					c2.342-0.276,3.719-1.929,3.719-1.929"/>
				<path style="fill:#263238;stroke:#263238;stroke-miterlimit:10;" d="M348.427,235.631c0,0,2.617,0,3.168-0.275
					c0.551-0.275,4.546-1.515,4.546-1.515s-3.857,4.27-5.097,5.372c-1.24,1.102-3.168,1.928-3.168,1.928L348.427,235.631z"/>
			</g>
		</g>
		<g>
			<path style="fill:#B0B0B0;stroke:#263238;stroke-miterlimit:10;" d="M297.512,233.587l-54.877-3.529
				c-4.769-0.307-8.386-4.421-8.079-9.19l3.664-56.987c0.307-4.769,4.421-8.386,9.19-8.079l54.877,3.529
				c4.769,0.307,8.386,4.421,8.079,9.19l-3.664,56.987C306.395,230.277,302.28,233.894,297.512,233.587z"/>
			<path style="fill:#263238;" d="M314.388,234.673l-54.877-3.529c-4.769-0.307-8.386-4.421-8.079-9.19l3.664-56.987
				c0.307-4.769,4.421-8.386,9.19-8.079l54.877,3.529c4.769,0.307,8.386,4.421,8.079,9.19l-3.664,56.987
				C323.271,231.362,319.157,234.979,314.388,234.673z"/>
		</g>
		<path style="fill:#D6D6D6;stroke:#263238;stroke-miterlimit:10;" d="M343.423,253.659l-22.08-23.813c0,0-2.6-4.048-3.411-4.756
			c-0.81-0.708-3.912-0.909-4.548-0.529c-0.637,0.381-5.544-0.648-6.404-0.79c-0.86-0.142-2.089,0.892-1.056,2.122
			c1.033,1.23,2.366,1.714,3.047,1.606c0.68-0.109,3.281,0.452,3.281,0.452s-4.843,2.867-5.752,3.291
			c-0.909,0.424-10.86,1.875-11.682,2.844c-0.822,0.968,1.213,1.48,2.051,1.486c0.838,0.006,2.486,0.719,2.938,0.925
			c0.452,0.207,3.291,2.264,5.898,1.987c2.606-0.277,11.42-0.988,11.42-0.988l18.56,25.352L343.423,253.659z"/>
		<g>
			<path style="fill:#92E3A9;stroke:#263238;stroke-miterlimit:10;" d="M373.497,245.135c0,0-2.893,1.515-4.133,3.857
				c-1.24,2.342-16.721,11.737-16.721,11.737l-7.661-6.365l-8.954,9.78c0,0,11.759,14.922,14.239,15.887
				c2.48,0.964,4.959,0.964,5.923,0.275c0.964-0.689,25.571-15.611,25.571-15.611"/>
			<path style="fill:none;stroke:#263238;stroke-miterlimit:10;" d="M352.643,260.73c0,0,4.211,3.161,4.9,3.712"/>
			<path style="fill:none;stroke:#263238;stroke-miterlimit:10;" d="M356.504,261.769c0,0,5.372,3.03,5.234,4.546"/>
			<polygon style="fill:#92E3A9;stroke:#263238;stroke-miterlimit:10;" points="343.192,252.161 332.861,262.216 337.82,267.726 
				348.84,256.155 			"/>
		</g>
		<path style="fill:#92E3A9;stroke:#263238;stroke-miterlimit:10;" d="M310.546,259.461c0,0-13.499,10.469-13.362,11.295
			c0.138,0.827,3.857,7.576,3.857,7.576s13.224-12.673,13.637-13.224c0.413-0.551,1.102-0.689,0.138-1.928
			C313.852,261.941,313.438,257.809,310.546,259.461z"/>
		<line style="fill:#FFFFFF;stroke:#263238;stroke-miterlimit:10;" x1="325.009" y1="281.088" x2="325.956" y2="255.865"/>
	</g>
	<g>
		<path style="fill:#FFFFFF;stroke:#263238;stroke-miterlimit:10;" d="M266.07,225.754l3.617-63.74l17.549,0.996
			c4.301,0.244,8,0.927,11.094,2.051c3.093,1.122,5.45,2.952,7.069,5.491c1.619,2.54,2.302,6.041,2.049,10.499
			c-0.149,2.624-0.491,4.945-1.027,6.968c-0.537,2.021-1.411,3.748-2.623,5.18c-1.214,1.432-2.898,2.586-5.052,3.464l6.984,31.343
			l-14.558-0.826l-5.383-28.963l-4.014-0.229l-1.621,28.566L266.07,225.754z M282.236,189.882l3.935,0.224
			c1.993,0.113,3.561-0.152,4.704-0.798c1.142-0.646,1.974-1.625,2.496-2.938c0.521-1.313,0.836-2.913,0.943-4.802
			c0.155-2.727-0.224-4.88-1.133-6.458c-0.911-1.578-2.704-2.444-5.379-2.596l-4.564-0.26L282.236,189.882z"/>
	</g>
</g>
<g id="Lamp">
	<g>
		<path style="fill:#FFFFFF;stroke:#263238;stroke-miterlimit:10;" d="M72.336,64.849c0,3.767-3.054,6.821-6.821,6.821
			c-3.767,0-6.821-3.054-6.821-6.821c0-3.767,3.054-6.821,6.821-6.821C69.282,58.028,72.336,61.082,72.336,64.849z"/>
		<polygon style="fill:#263238;stroke:#263238;stroke-miterlimit:10;" points="96.042,65.957 34.987,65.957 59.409,45.391 
			71.62,45.391 		"/>
		<line style="fill:none;stroke:#263238;stroke-miterlimit:10;" x1="65.514" y1="45.866" x2="65.514" y2="6.663"/>
	</g>
</g>
</svg>
