<?xml version="1.0" standalone="no"?>
<!DOCTYPE svg PUBLIC "-//W3C//DTD SVG 20010904//EN"
 "http://www.w3.org/TR/2001/REC-SVG-20010904/DTD/svg10.dtd">
<svg version="1.0" xmlns="http://www.w3.org/2000/svg"
 width="2800.000000pt" height="2000.000000pt" viewBox="0 0 2800.000000 2000.000000"
 preserveAspectRatio="xMidYMid meet">

<g transform="translate(0.000000,2000.000000) scale(0.100000,-0.100000)"
fill="#000000" stroke="none">
<path d="M12090 19224 c-477 -45 -844 -379 -925 -843 -27 -151 -13 -347 35
-485 11 -33 20 -63 20 -68 0 -4 -267 -8 -594 -8 l-595 0 -46 -74 c-56 -90
-107 -215 -130 -318 -9 -43 -18 -79 -19 -80 0 0 -820 -4 -1821 -7 l-1820 -6
-57 -28 c-77 -38 -144 -107 -182 -187 l-31 -65 -6 -1055 c-12 -1988 -10
-14141 2 -14206 24 -131 108 -243 224 -300 l60 -29 4703 -3 4703 -2 -8 72
c-10 90 -10 359 -1 450 l7 68 -4392 2 -4392 3 -55 26 c-97 45 -161 117 -196
220 -12 33 -14 1159 -14 6904 0 6752 0 6866 19 6915 36 95 120 181 212 217 42
17 298 18 5304 18 l5260 0 48 -22 c70 -32 125 -79 162 -137 64 -102 60 16 65
-1589 l5 -1468 43 36 42 37 0 83 c0 104 26 180 83 242 l39 43 -57 177 c-87
273 -87 378 0 552 74 147 206 269 360 334 l60 25 0 1184 0 1183 -23 58 c-43
105 -123 186 -232 233 -44 18 -93 19 -1711 22 l-1666 2 -7 58 c-16 139 -72
278 -147 364 l-40 48 -637 2 c-561 3 -637 5 -633 18 2 8 14 50 27 92 85 285
26 626 -150 872 -56 78 -185 203 -256 248 -152 97 -301 150 -471 168 -56 5
-109 9 -118 8 -9 0 -32 -3 -51 -4z m214 -514 c107 -27 169 -63 252 -145 111
-109 164 -234 164 -383 0 -117 -40 -241 -107 -329 l-24 -33 -414 0 -413 0 -27
31 c-67 80 -109 206 -109 329 0 231 138 429 357 512 110 42 206 48 321 18z"/>
<path d="M16490 15871 c-6 -13 -10 -213 -10 -582 l0 -562 -32 27 c-198 158
-480 296 -747 367 -334 87 -728 82 -1039 -13 l-74 -23 29 -21 28 -21 92 23
c272 68 584 73 872 14 280 -59 579 -199 809 -382 l62 -50 -6 -1026 c-4 -565
-9 -1029 -13 -1032 -3 -3 -446 -3 -984 0 l-979 5 67 75 c89 101 156 202 221
335 68 141 106 257 134 418 19 110 22 152 17 290 -8 253 -55 437 -168 658 -95
183 -265 390 -401 488 -27 19 -48 37 -48 41 0 8 52 33 163 80 l89 37 -30 22
-30 21 -79 -34 c-43 -18 -101 -45 -128 -59 l-50 -25 -60 35 c-312 186 -712
251 -1075 177 -170 -35 -374 -119 -520 -214 -404 -263 -655 -703 -685 -1200
-3 -57 -7 -106 -9 -107 -1 -2 -80 26 -174 62 -95 36 -223 78 -285 94 -361 93
-692 55 -1062 -124 l-110 -53 37 -16 c36 -15 36 -15 140 33 116 55 252 101
378 128 63 13 127 18 250 17 235 -1 365 -31 707 -164 l131 -51 7 -72 c28 -277
161 -576 363 -815 30 -35 52 -65 50 -66 -1 -1 -1101 4 -2443 10 -1342 7 -2448
10 -2458 7 -14 -3 -17 -13 -15 -36 l3 -32 165 -7 c91 -4 1219 -11 2507 -17
l2342 -9 43 -35 c167 -136 388 -241 633 -300 76 -18 123 -22 307 -23 l217 -2
30 -35 c39 -44 111 -75 187 -80 l59 -5 93 -203 c52 -112 97 -207 101 -211 4
-5 24 1 45 12 21 10 62 24 90 30 51 10 53 12 70 60 32 90 86 154 164 196 1 0
-29 70 -68 154 l-70 154 24 35 c53 76 72 172 45 223 l-11 21 1065 -6 c843 -4
1068 -3 1076 7 13 16 32 3333 19 3359 -12 23 -55 22 -68 -2z m-2857 -1016
c321 -56 618 -242 795 -498 405 -586 238 -1372 -369 -1741 -472 -286 -1085
-210 -1479 184 -331 331 -443 820 -288 1258 62 177 151 318 287 453 184 184
410 302 652 343 113 19 297 19 402 1z"/>
<path d="M10150 13549 c-88 -54 -427 -220 -535 -262 -370 -144 -785 -200
-1325 -177 -299 13 -297 13 -304 -7 -14 -37 11 -42 281 -54 581 -26 1042 40
1433 206 76 32 297 142 460 228 l114 61 -29 12 c-42 18 -55 17 -95 -7z"/>
<path d="M18223 13336 c-46 -58 -52 -166 -10 -174 42 -8 100 111 81 166 -13
36 -46 40 -71 8z"/>
<path d="M19032 13123 c-40 -16 -74 -165 -45 -194 19 -19 57 3 78 46 43 92 25
172 -33 148z"/>
<path d="M18710 12643 c-50 -20 -90 -27 -172 -31 -121 -5 -123 -7 -92 -80 15
-37 70 -102 87 -102 4 0 19 13 33 29 35 42 87 72 158 91 l61 17 3 51 c2 29 -1
51 -5 51 -4 -1 -37 -13 -73 -26z"/>
<path d="M18148 11677 c-7 -8 -60 -24 -117 -36 -391 -84 -755 -313 -1096 -692
-133 -146 -302 -357 -414 -515 -47 -65 -88 -123 -92 -127 -18 -22 -435 223
-1036 609 -253 163 -340 214 -357 210 -11 -3 -48 -26 -81 -51 -32 -24 -62 -41
-66 -37 -3 4 -61 129 -129 278 l-124 271 -36 -46 c-21 -25 -56 -57 -78 -71
-33 -20 -40 -29 -34 -45 4 -11 7 -44 7 -72 0 -48 2 -54 28 -64 15 -6 41 -27
57 -46 60 -68 28 -168 -81 -248 -32 -24 -64 -45 -70 -47 -15 -5 325 -745 359
-781 86 -91 233 -97 323 -15 l36 33 104 -124 c348 -417 703 -685 1025 -773 63
-17 109 -21 224 -22 80 -1 167 3 193 7 l49 8 -44 28 c-83 53 -103 97 -64 136
14 14 35 25 47 25 18 0 20 4 14 23 -19 60 -17 86 8 111 35 35 97 41 282 28 88
-7 177 -12 198 -12 l39 0 -36 42 c-80 93 -98 183 -48 238 56 63 150 47 342
-61 58 -32 162 -83 231 -113 132 -57 229 -104 229 -110 0 -2 -28 -24 -62 -49
-119 -85 -217 -205 -279 -343 -28 -62 -29 -63 -82 -74 l-54 -11 -6 -122 c-8
-144 -32 -259 -82 -387 -20 -52 -37 -96 -39 -98 -2 -1 -82 13 -177 32 -343 70
-437 80 -724 80 -238 0 -267 -2 -340 -22 -306 -85 -550 -314 -804 -756 -157
-271 -319 -608 -446 -921 -195 -483 -344 -968 -610 -1985 -201 -766 -181 -679
-159 -695 62 -44 66 -41 -67 -49 -295 -17 -611 -78 -666 -129 -33 -30 -29 -60
15 -99 43 -39 221 -129 363 -184 508 -196 680 -254 751 -254 42 0 177 163 263
318 25 44 46 72 57 72 34 0 498 801 854 1473 65 122 91 163 96 150 3 -10 39
-169 78 -353 39 -184 82 -382 95 -440 14 -58 39 -184 56 -280 74 -421 128
-690 245 -1225 68 -313 136 -615 149 -670 82 -340 158 -641 164 -647 4 -5 44
-13 89 -19 l81 -12 -71 -76 c-123 -132 -312 -392 -377 -518 -40 -79 -18 -133
54 -133 114 1 916 343 1069 456 l49 36 -6 112 c-4 61 -16 151 -27 199 -16 72
-20 139 -24 365 -3 152 -11 471 -18 707 -8 273 -11 741 -9 1280 2 468 5 1040
5 1272 l1 423 35 -7 c68 -14 1455 -9 1595 5 625 64 931 287 1057 771 27 102
31 138 35 295 6 190 -4 304 -39 436 -17 68 -19 95 -12 288 l6 212 62 29 c147
71 358 250 446 380 62 92 118 218 146 329 59 226 38 571 -57 947 -103 409
-336 938 -537 1219 -69 96 -237 273 -341 360 -88 74 -249 185 -320 221 -34 17
-51 32 -53 47 -6 41 -36 32 -103 -31 -167 -156 -387 -230 -608 -204 -229 27
-385 128 -442 286 -23 64 -42 79 -67 54z"/>
<path d="M8940 11659 c-624 -61 -1171 -441 -1446 -1005 -291 -598 -223 -1327
173 -1853 78 -102 192 -231 205 -231 5 0 295 268 644 595 l634 596 -1 42 c0
23 -21 451 -47 952 -40 778 -49 910 -62 911 -8 1 -53 -2 -100 -7z"/>
<path d="M10870 4845 l0 -1825 -1661 -2 -1661 -3 -34 -37 c-28 -31 -34 -46
-34 -82 0 -49 24 -87 70 -111 26 -13 512 -15 3987 -15 3908 0 3958 0 3990 20
61 37 79 108 43 167 -41 68 102 63 -1810 63 l-1730 0 0 1825 0 1825 -580 0
-580 0 0 -1825z"/>
</g>
</svg>
