<?xml version="1.0" encoding="utf-8"?>
<!-- Generator: Adobe Illustrator 27.5.0, SVG Export Plug-In . SVG Version: 6.00 Build 0)  -->
<svg version="1.1" xmlns="http://www.w3.org/2000/svg" xmlns:xlink="http://www.w3.org/1999/xlink" x="0px" y="0px"
	 viewBox="0 0 900 500" style="enable-background:new 0 0 900 500;" xml:space="preserve">
<g id="BACKGROUND">
	<rect style="fill:#FFFFFF;" width="900" height="500"/>
</g>
<g id="OBJECTS">
	<g>
		<g>
			<path style="fill:#E8F8FC;" d="M103.482,444.378h628.206c30.788-18.135,48.48-57.682,45.55-93.294
				c-2.93-35.611-27.575-68.548-60.913-81.407c-32.676-12.604-69.097-6.471-104.12-6.423c-29.007,0.039-58.634-4.473-84.174-18.223
				c-20.987-11.299-38.337-28.318-58.612-40.848c-21-12.978-45.542-21.029-70.198-19.805c-24.656,1.224-49.268,12.421-64.081,32.169
				c-16.787,22.379-20.315,53.708-40.835,72.722c-28.325,26.246-73.492,16.749-110.641,27.292
				C130.441,331.666,84.889,392.271,103.482,444.378z"/>
			<path style="fill:#E8F8FC;" d="M238.334,252.561c-2.978,5.576-4.708,12.331-2.386,18.211c2.3,5.825,8.257,9.639,14.42,10.748
				c6.163,1.109,12.517-0.114,18.504-1.949c13.086-4.012,26.11-11.98,30.886-24.807c4.694-12.607-3.875-23.33-16.171-26.525
				c-9.772-2.539-23.283,3.561-31.174,8.887C246.587,241.058,241.653,246.348,238.334,252.561z"/>
			<path style="fill:#E8F8FC;" d="M784.749,280.704c0.24,3.271-0.721,6.848-3.039,9.053c-3.435,3.266-8.509,2.615-12.693,1.229
				c-7.902-2.617-15.199-7.162-21.236-13.227c-3.664-3.681-6.994-8.22-7.651-13.733c-1.976-16.58,15.349-14.047,24.043-10.342
				C773.066,257.474,783.957,269.891,784.749,280.704z"/>
		</g>
		<g>
			<g>
				<g>
					<rect x="140.01" y="333.837" style="fill:#C1CCD7;" width="1.207" height="110.111"/>
					<rect x="183.712" y="333.837" style="fill:#C1CCD7;" width="1.207" height="110.111"/>
					<rect x="227.414" y="333.837" style="fill:#C1CCD7;" width="1.207" height="110.111"/>
					<rect x="271.116" y="333.837" style="fill:#C1CCD7;" width="1.207" height="110.111"/>
					<rect x="314.817" y="333.837" style="fill:#C1CCD7;" width="1.207" height="110.111"/>
					<rect x="358.52" y="339.658" style="fill:#C1CCD7;" width="1.206" height="104.29"/>
					<rect x="402.221" y="333.837" style="fill:#C1CCD7;" width="1.206" height="110.111"/>
				</g>
				<polygon style="fill:#98D4F1;" points="141.587,402.742 139.64,401.369 184.073,342.953 228.378,375.897 271.249,372.064 
					315.126,338.398 413.454,360.448 412.905,362.71 315.715,340.917 272.189,374.313 271.831,374.346 227.656,378.296 
					227.279,378.017 184.557,346.248 				"/>
				<polygon style="fill:#EAA4A6;" points="141.314,408.085 139.912,406.194 184.194,375.752 227.798,395.845 271.405,356.919 
					315.641,369.708 358.33,372.74 410.205,383.192 409.708,385.466 357.913,375.029 315.074,371.97 272.033,359.527 
					228.236,398.622 184.436,378.441 				"/>
				<polygon style="fill:#FFDD7A;" points="262.111,434.419 226.141,414.551 190.77,425.399 190.171,423.586 226.37,412.485 
					261.971,432.149 297.359,406.804 297.504,406.755 333.895,394.637 368.726,430.578 408.531,408.429 409.535,410.068 
					368.363,432.992 333.327,396.84 298.293,408.506 				"/>
			</g>
			<rect x="514.385" y="243.117" style="fill:#F7EFD7;" width="33.832" height="201.261"/>
			<rect x="573.649" y="195.025" style="fill:#C8E6E4;" width="33.832" height="249.353"/>
			<rect x="632.913" y="234.253" style="fill:#F7EFD7;" width="33.832" height="210.125"/>
			<rect x="692.178" y="161.583" style="fill:#C8E6E4;" width="33.832" height="282.796"/>
			<polygon style="fill:#CDDBDE;" points="719.891,122.668 718.25,99.549 695.112,98.216 694.526,108.384 703.743,108.915 
				649.068,161.374 591.933,128.255 527.156,219.033 535.446,224.949 594.841,141.714 650.59,174.029 709.326,117.674 
				709.731,123.388 			"/>
			<g>
				<polygon style="fill:#555555;" points="299.472,201.161 112.465,267.164 112.465,261.235 299.472,195.232 				"/>
				<path style="fill:#666666;" d="M251.692,431.573h-91.447c-5.477,0-10.472,3.132-12.859,8.061l-2.297,4.744h121.758l-2.297-4.744
					C262.165,434.704,257.17,431.573,251.692,431.573z"/>
				<g>
					<g>
						<g>
							<rect x="64.791" y="351.834" style="fill:#FFD350;" width="95.348" height="6.199"/>
							<path style="fill:#FFBC50;" d="M124.864,384.011h-24.797c-14.347,0-25.977-11.63-25.977-25.977l0,0h76.751l0,0
								C150.841,372.38,139.21,384.011,124.864,384.011z"/>
						</g>
						<rect x="75.861" y="345.34" style="fill:#FFBC50;" width="47.969" height="6.494"/>
						<rect x="68.508" y="338.883" style="fill:#FFD350;" width="47.969" height="6.494"/>
						<rect x="79.298" y="332.425" style="fill:#FFBC50;" width="47.97" height="6.494"/>
						<path style="fill:#BB5455;" d="M127.781,316.854c0,0-5.461-9.742-3.542-13.579c1.919-3.838,3.247,2.362,4.871,1.771
							c1.624-0.59,2.657-6.937,5.314-6.347s-0.295,6.789,1.624,6.347c1.919-0.443,2.952-1.771,4.133-0.59
							C141.36,305.636,134.571,319.658,127.781,316.854z"/>
						<path style="fill:#EA5455;" d="M127.907,313.975c-24.944,9.871-17.361,37.859-17.361,37.859h28.929h4.28
							c5.102-20.062-5.922-32.561-10.881-36.998C131.518,313.623,129.599,313.306,127.907,313.975z"/>
						<path style="fill:#EAC7B2;" d="M127.268,332.425c-5.959,0-10.79,4.831-10.79,10.79c0,3.528,1.701,6.65,4.318,8.619h12.944
							c2.618-1.969,4.318-5.091,4.318-8.619C138.058,337.256,133.227,332.425,127.268,332.425z"/>
					</g>
					<g>
						<g>
							<polygon style="fill:#F79950;" points="327.685,286 299.547,201.014 271.408,286 269.727,285.443 299.547,195.379 
								329.366,285.443 							"/>
							<circle style="fill:#FFBC50;" cx="299.547" cy="198.196" r="4.862"/>
						</g>
						<g>
							<rect x="251.798" y="285.363" style="fill:#FFD350;" width="95.348" height="6.199"/>
							<path style="fill:#FFBC50;" d="M311.871,317.54h-24.797c-14.347,0-25.977-11.631-25.977-25.977l0,0h76.751l0,0
								C337.848,305.909,326.217,317.54,311.871,317.54z"/>
							<path style="fill:#FFAC50;" d="M261.097,291.562c0,1.401,0.114,2.775,0.328,4.116c12.108-0.096,55.525,0.258,72.365,9.818
								c2.566-4.027,4.058-8.805,4.058-13.934l0,0H261.097L261.097,291.562z"/>
						</g>
						<g>
							<g>
								<path style="fill:#0093B2;" d="M330.266,257.037c-8.218,1.512-6.203,6.275-6.203,6.275s3.727,2.343,6.292-6.291
									C330.325,257.026,330.295,257.032,330.266,257.037z"/>
								<path style="fill:#00BBB2;" d="M311.997,244.014c0,5.867,6.033,6.863,6.033,6.863S320.41,244.125,311.997,244.014z"/>
								<line style="fill:#FFFFFF;" x1="321.074" y1="266.227" x2="327.052" y2="260.397"/>
								<polygon style="fill:#FFBC50;" points="327.361,260.715 326.742,260.08 321.517,265.176 321.517,244.2 324.156,241.599 
									323.534,240.968 321.517,242.956 321.517,238.332 320.631,238.332 320.631,252.686 315.319,246.601 314.652,247.184 
									320.631,254.032 320.631,277.116 321.517,277.116 321.517,266.414 								"/>
							</g>
							<g>
								<path style="fill:#00BBB2;" d="M313.568,254.334c-6.273,9.151,0,11.955,0,11.955S318.069,263.854,313.568,254.334z"/>
								<g>
									<line style="fill:#FFFFFF;" x1="313.568" y1="270.434" x2="313.568" y2="261.652"/>
									<rect x="313.125" y="261.652" style="fill:#FF9850;" width="0.886" height="8.781"/>
								</g>
							</g>
							<path style="fill:#00BBB2;" d="M294.011,235.822c-10.922,19.631,0,25.83,0,25.83
								C301.981,251.763,294.011,235.822,294.011,235.822z"/>
							<path style="fill:#0093B2;" d="M307.443,256.486c-9.963,1.771-8.837,7.559-8.837,7.559
								C307.923,265.996,307.443,256.486,307.443,256.486z"/>
							<g>
								<path style="fill:#00BBB2;" d="M279.915,262.095c2.066,10.922,9.849,8.879,9.849,8.879S291.797,261.873,279.915,262.095z"/>
								<line style="fill:#FFFFFF;" x1="294.011" y1="274.641" x2="284.27" y2="266.227"/>
								<polygon style="fill:#FFBC50;" points="302.8,262.031 302.343,261.273 294.454,266.034 294.454,253.239 293.568,253.239 
									293.568,273.673 284.559,265.892 283.98,266.562 293.568,274.842 293.568,282.464 294.454,282.464 294.454,267.067 								
									"/>
							</g>
							<path style="fill:#00BBB2;" d="M269.805,243.866c-9.299,15.424,0,17.786,0,17.786S276.152,258.478,269.805,243.866z"/>
							<path style="fill:#0093B2;" d="M260.432,265.047c1.919,6.863,6.862,5.387,6.862,5.387S268.993,264.456,260.432,265.047z"/>
							<line style="fill:#FFFFFF;" x1="269.805" y1="252.575" x2="269.805" y2="280.484"/>
							<g>
								<line style="fill:#FFFFFF;" x1="269.805" y1="272.574" x2="263.469" y2="267.174"/>
								<polygon style="fill:#FF9850;" points="269.362,252.575 269.362,271.615 263.757,266.837 263.182,267.511 269.362,272.779 
									269.362,280.484 270.248,280.484 270.248,252.575 								"/>
							</g>
							<path style="fill:#997271;" d="M290.469,285.363c0.443,0,4.428-17.069,22.435-16.479
								c18.007,0.59,18.007,16.479,18.007,16.479H290.469z"/>
							<path style="fill:#997271;" d="M280.432,285.363c0,0-0.886-11.461-10.479-9.542c-9.594,1.919-8.413,9.542-8.413,9.542
								H280.432z"/>
							<path style="fill:#B58471;" d="M336.838,285.363c0,0-0.856-11.308-10.48-9.542c-7.055,1.295-8.413,9.542-8.413,9.542H336.838
								z"/>
							<path style="fill:#B58471;" d="M299.547,285.363c0,0-0.126-12.751-13.09-11.61c-9.974,0.878-13.921,11.61-13.921,11.61
								H299.547z"/>
						</g>
					</g>
				</g>
				<path style="fill:#B58471;" d="M212.972,431.573h-14.008l3.815-224.393c0.027-1.61,1.34-2.901,2.951-2.901l0,0
					c1.608,0,2.92,1.287,2.951,2.895L212.972,431.573z"/>
				<polygon style="fill:#555555;" points="145.09,444.378 266.848,444.378 265.042,440.647 146.896,440.647 				"/>
				<path style="fill:#FFAC50;" d="M74.253,360.916c14.471,1.252,58.723,3.878,74.646,6.976c1.249-3.041,1.942-6.368,1.942-9.859
					H74.09C74.09,359.008,74.148,359.969,74.253,360.916z"/>
				<g>
					<polygon style="fill:#F79950;" points="140.604,352.113 112.465,267.127 84.327,352.113 82.646,351.556 112.465,261.491 
						142.285,351.556 					"/>
					<path style="fill:#FFBC50;" d="M117.328,264.309c0,2.685-2.177,4.862-4.862,4.862c-2.685,0-4.862-2.177-4.862-4.862
						c0-2.685,2.177-4.862,4.862-4.862C115.151,259.447,117.328,261.624,117.328,264.309z"/>
				</g>
			</g>
			<g>
				<g>
					<rect x="506.69" y="427.951" style="fill:#FFD350;" width="147.921" height="16.428"/>
					<g>
						<rect x="515.475" y="427.951" style="fill:#FFB750;" width="2.491" height="16.428"/>
						<rect x="533.741" y="427.951" style="fill:#FFB750;" width="2.491" height="16.428"/>
						<rect x="552.006" y="427.951" style="fill:#FFB750;" width="2.491" height="16.428"/>
						<rect x="570.272" y="427.951" style="fill:#FFB750;" width="2.491" height="16.428"/>
						<rect x="588.537" y="427.951" style="fill:#FFB750;" width="2.491" height="16.428"/>
						<rect x="606.803" y="427.951" style="fill:#FFB750;" width="2.491" height="16.428"/>
						<rect x="625.069" y="427.951" style="fill:#FFB750;" width="2.491" height="16.428"/>
						<rect x="643.334" y="427.951" style="fill:#FFB750;" width="2.491" height="16.428"/>
					</g>
				</g>
				<g>
					<rect x="514.577" y="411.523" style="fill:#FFC250;" width="147.921" height="16.428"/>
					<g>
						<rect x="523.362" y="411.523" style="fill:#FFAF50;" width="2.491" height="16.428"/>
						<rect x="541.628" y="411.523" style="fill:#FFAF50;" width="2.491" height="16.428"/>
						<rect x="559.894" y="411.523" style="fill:#FFAF50;" width="2.491" height="16.428"/>
						<rect x="578.159" y="411.523" style="fill:#FFAF50;" width="2.491" height="16.428"/>
						<rect x="596.425" y="411.523" style="fill:#FFAF50;" width="2.491" height="16.428"/>
						<rect x="614.69" y="411.523" style="fill:#FFAF50;" width="2.491" height="16.428"/>
						<rect x="632.956" y="411.523" style="fill:#FFAF50;" width="2.491" height="16.428"/>
						<rect x="651.222" y="411.523" style="fill:#FFAF50;" width="2.491" height="16.428"/>
					</g>
				</g>
				<g>
					<rect x="495.413" y="395.095" style="fill:#FFD350;" width="147.921" height="16.428"/>
					<g>
						<rect x="504.199" y="395.095" style="fill:#FFB750;" width="2.491" height="16.428"/>
						<rect x="522.464" y="395.095" style="fill:#FFB750;" width="2.491" height="16.428"/>
						<rect x="540.73" y="395.095" style="fill:#FFB750;" width="2.491" height="16.428"/>
						<rect x="558.996" y="395.095" style="fill:#FFB750;" width="2.491" height="16.428"/>
						<rect x="577.261" y="395.095" style="fill:#FFB750;" width="2.491" height="16.428"/>
						<rect x="595.527" y="395.095" style="fill:#FFB750;" width="2.491" height="16.428"/>
						<rect x="613.792" y="395.095" style="fill:#FFB750;" width="2.491" height="16.428"/>
						<rect x="632.058" y="395.095" style="fill:#FFB750;" width="2.491" height="16.428"/>
					</g>
				</g>
				<g>
					
						<rect x="651.477" y="297.067" transform="matrix(0.9611 -0.2763 0.2763 0.9611 -76.8325 196.7093)" style="fill:#FFD350;" width="16.428" height="147.921"/>
					<g>
						
							<rect x="633.814" y="308.341" transform="matrix(0.9611 -0.2763 0.2763 0.9611 -60.5443 189.4368)" style="fill:#FFB750;" width="16.428" height="2.491"/>
						
							<rect x="638.86" y="325.896" transform="matrix(0.9611 -0.2763 0.2763 0.9611 -65.198 191.5145)" style="fill:#FFB750;" width="16.428" height="2.491"/>
						
							<rect x="643.907" y="343.45" transform="matrix(0.9611 -0.2763 0.2763 0.9611 -69.8517 193.5921)" style="fill:#FFB750;" width="16.428" height="2.491"/>
						
							<rect x="648.953" y="361.005" transform="matrix(0.9611 -0.2763 0.2763 0.9611 -74.499 195.6416)" style="fill:#FFB750;" width="16.428" height="2.491"/>
						
							<rect x="654" y="378.559" transform="matrix(0.9611 -0.2763 0.2763 0.9611 -79.1605 197.7529)" style="fill:#FFB750;" width="16.428" height="2.491"/>
						
							<rect x="659.047" y="396.114" transform="matrix(0.9611 -0.2763 0.2763 0.9611 -83.8129 199.8251)" style="fill:#FFB750;" width="16.428" height="2.491"/>
						
							<rect x="664.093" y="413.669" transform="matrix(0.9611 -0.2763 0.2763 0.9611 -88.469 201.9112)" style="fill:#FFB750;" width="16.428" height="2.491"/>
						
							<rect x="669.14" y="431.223" transform="matrix(0.9611 -0.2763 0.2763 0.9611 -93.1141 203.9593)" style="fill:#FFB750;" width="16.428" height="2.491"/>
					</g>
				</g>
				<circle style="fill:#FFD350;" cx="581.365" cy="336.995" r="57.615"/>
				<path style="fill:#FFB750;" d="M637.253,322.971l-46.456,8.191l40.291-23.262c-0.589-1.004-1.199-1.995-1.846-2.959
					l-40.189,23.203l29.492-35.147c-0.887-0.75-1.789-1.484-2.721-2.18l-29.441,35.086l15.552-42.728
					c-1.083-0.414-2.176-0.806-3.289-1.155l-15.538,42.691v-45.287c-0.58-0.017-1.158-0.044-1.743-0.044
					c-0.585,0-1.163,0.027-1.743,0.044v45.287l-15.538-42.691c-1.113,0.349-2.206,0.741-3.289,1.155l15.552,42.728l-29.441-35.086
					c-0.932,0.697-1.834,1.43-2.721,2.18l29.492,35.147l-40.189-23.203c-0.647,0.964-1.257,1.955-1.846,2.959l40.291,23.262
					l-46.456-8.191c-0.281,1.123-0.521,2.262-0.735,3.41l46.586,8.214l-47.275,8.336c0.119,1.164,0.284,2.314,0.471,3.457
					l47.409-8.359l-42.268,24.403c0.515,1.045,1.066,2.069,1.642,3.077l42.369-24.462l-31.793,37.889
					c0.846,0.797,1.71,1.575,2.604,2.32l31.859-37.968l-17.079,46.925c1.07,0.445,2.16,0.85,3.261,1.231l17.094-46.964v50.087
					c0.58,0.017,1.158,0.044,1.743,0.044c0.584,0,1.162-0.027,1.743-0.044V344.48l17.094,46.964
					c1.102-0.381,2.191-0.786,3.261-1.231l-17.079-46.925l31.859,37.968c0.893-0.745,1.757-1.523,2.604-2.32l-31.792-37.889
					l42.369,24.462c0.576-1.008,1.127-2.032,1.642-3.077l-42.268-24.403l47.409,8.359c0.187-1.142,0.352-2.293,0.471-3.457
					l-47.275-8.336l46.586-8.214C637.774,325.233,637.534,324.094,637.253,322.971z"/>
				
					<ellipse transform="matrix(0.2345 -0.9721 0.9721 0.2345 117.4303 823.1185)" style="fill:#F79950;" cx="581.365" cy="336.995" rx="47.491" ry="47.491"/>
				<circle style="fill:#FFAF50;" cx="581.365" cy="336.995" r="42.581"/>
				<text transform="matrix(1 0 0 1 563.9814 357.374)" style="fill:#FFD350; font-family:'Roboto-Bold'; font-size:60.6085px;">$</text>
			</g>
			<g>
				<polygon style="fill:#E89F71;" points="455.135,233.569 474.893,232.993 474.143,245.665 453.983,245.665 				"/>
				<g>
					<path style="fill:#EA696A;" d="M494.923,175.087c-6.472,7.92-9.738-1.114-9.738-1.114c-3.712,7.68-10.292,0.624-10.292,0.624
						l-16.459,235.489l28.154,1.968L503,177.24C497.704,182.788,494.923,175.087,494.923,175.087z"/>
					
						<rect x="469.541" y="393.775" transform="matrix(0.0697 -0.9976 0.9976 0.0697 32.8787 851.0305)" style="fill:#EAE8E3;" width="6.384" height="28.223"/>
					<path style="fill:#8C636A;" d="M486.588,412.055l-28.154-1.968l-0.504,7.208c-0.505,7.232,4.947,13.504,12.179,14.009
						l1.966,0.137c7.232,0.505,13.504-4.947,14.009-12.179L486.588,412.055z"/>
					<path style="fill:#EAE8E3;" d="M491.422,140.504l-16.529,34.093c0,0,6.58,7.056,10.292-0.624c0,0,3.266,9.033,9.738,1.114
						c0,0,2.782,7.7,8.077,2.152l0.047-0.674L491.422,140.504z"/>
					<polygon style="fill:#414149;" points="491.422,140.504 485.947,151.798 495.273,152.449 					"/>
					<path style="fill:#FF8F8F;" d="M479.564,405.164l15.989-228.76c-0.417-0.731-0.63-1.317-0.63-1.317
						c-6.472,7.92-9.738-1.114-9.738-1.114l-16.108,230.458L479.564,405.164z"/>
				</g>
				<path style="fill:#E89F71;" d="M415.057,151.108c0.192,1.92-0.576,13.056-3.072,18.335c-2.496,5.28-4.704,8.448-9.024,8.64
					c-4.32,0.192-10.944-2.496-13.247-4.608c-2.304-2.112-0.48-13.92-0.48-13.92s1.344-10.656,3.84-12
					C395.569,146.212,415.057,151.108,415.057,151.108z"/>
				<path style="fill:#4D4E4C;" d="M392.65,319.391c0,0-4.497,32.639-6.596,38.399c-2.099,5.76-33.779,57.345-33.779,57.345
					s-5.376-2.435-13.247-5.123c-7.872-2.688-8.64-4.032-8.64-4.032s25.343-58.558,28.223-67.006s2.908-35.327,2.908-35.327
					L392.65,319.391z"/>
				<path style="fill:#43454C;" d="M390.327,335.214c1.298-8.394,2.322-15.823,2.322-15.823l-31.131-15.743
					c0,0-0.007,6.755-0.377,14.557C368.302,321.476,382.326,328.335,390.327,335.214z"/>
				<path style="fill:#555555;" d="M354.195,285.984c0,0-4.608,20.159,1.44,23.903c6.048,3.744,51.566,18.719,51.566,18.719
					s7.324,22.463,12.294,30.239c4.97,7.776,23.163,54.273,24.603,56.289c0,0,8.013-0.803,11.757-3.971
					c3.744-3.168,9.696-4.416,9.696-4.416s-5.568-17.471-9.792-24.959c-4.224-7.488-10.944-39.935-12.864-43.007
					c-1.92-3.072-3.648-24.575-6.144-26.687c-2.496-2.112-31.487-23.039-35.135-24.383
					C397.969,286.368,354.195,285.984,354.195,285.984z"/>
				<path style="fill:#43454C;" d="M401.617,287.712c-3.648-1.344-47.422-1.728-47.422-1.728s-2.218,9.714-1.552,16.909
					c0.175-0.174,0.342-0.356,0.517-0.529c3.069-3.022,6.298-5.955,10.082-8.012c6.993-3.801,15.29-4.307,23.243-3.992
					c5.212,0.206,13.92,2.406,19.47-0.108C403.855,288.892,402.296,287.962,401.617,287.712z"/>
				<path style="fill:#B58471;" d="M382.641,182.967c0,0-26.719,5.484-29.022,8.172c-2.304,2.688-5.184,17.663-6.192,19.391
					c-1.008,1.728-3.168,4.032-2.016,6.912c1.152,2.88-0.803,4.608-0.329,7.344c0.473,2.736,0.617,4.176,0.617,4.176
					s-0.288,14.688,0.576,15.984c0.864,1.296,9.36,4.608,11.52,4.896c0,0-1.728,14.111-3.024,16.271
					c-1.296,2.16-1.296,4.608-0.864,5.328c0.432,0.72-2.16,4.32-1.728,6.192c0.432,1.872-1.728,8.784-1.152,9.216
					c0.576,0.432,15.407,2.016,19.295,1.584c3.888-0.432,7.92-2.016,7.92-2.016s4.32,2.304,9.216,2.736
					c4.896,0.432,21.599,0,21.599,0s1.44-10.512,1.152-13.967c-0.288-3.456,7.488-46.942,7.488-46.942s3.312,4.896,2.88,6.048
					c-0.432,1.152,0.144,2.88,1.44,3.456c1.296,0.576,7.2,8.784,8.784,9.792c1.584,1.008,18.287-1.008,18.287-1.008v-15.264
					l-7.632-0.72l-5.616-9.792c0,0-0.288-3.456-3.024-4.176c0,0-0.72-2.016-1.584-3.6c-0.864-1.584-9.072-19.583-10.656-19.871
					c-1.584-0.288-13.042-5.366-13.042-5.366L382.641,182.967z"/>
				<path style="fill:#96746A;" d="M368.341,237.163c0,0,1.981,0.63,3.133,0.918c1.152,0.288,2.688,0.864,4.416,1.824
					c1.728,0.96,2.88,1.152,4.416,1.152c1.536,0,4.741,2.03,4.741,2.03s-0.613-1.742-3.349-2.39
					c-2.736-0.648-5.474-1.944-6.841-2.952c-1.367-1.008-6.793-1.59-6.793-1.59L368.341,237.163z"/>
				<path style="fill:#96746A;" d="M440.347,247.427c4.442-0.38,8.74-0.898,8.74-0.898v-15.264l-1.776-0.167
					c-0.737,1.366-2.29,4.417-2.399,6.065C444.78,239.144,446.071,243.408,440.347,247.427z"/>
				<g>
					<path style="fill:#776C64;" d="M378.516,286.504l-0.548-0.177c0.019-0.058,1.88-5.916,3.204-16.834
						c1.33-10.963,14.51-77.737,14.643-78.411l0.565,0.112c-0.133,0.673-13.308,67.427-14.636,78.368
						C380.412,280.542,378.535,286.446,378.516,286.504z"/>
				</g>
				
					<rect x="405.513" y="209.722" transform="matrix(0.1728 -0.9849 0.9849 0.1728 122.5987 580.4377)" style="fill:#D7BCA7;" width="2.736" height="15.008"/>
				<path style="fill:#414149;" d="M420.865,147.604c0.336-0.768,1.824-1.728,1.824-1.728s-4.8-1.968-6.048-4.128
					c-0.534-0.924-2.015-2.442-4.457-3.651c2.351,0.264,4.505,0.627,4.505,0.627c-3.408-1.57-8.213-2.123-10.019-2.283
					c-2.02-0.276-4.355-0.272-6.991,0.142c1.248-1.252,2.803-2.419,2.803-2.419s-3.179,1.184-5.093,2.869
					c-0.096,0.023-0.186,0.035-0.283,0.059c-0.411-0.197-2.16-1.872-6.48-1.296c0,0,1.61,0.306,3.124,0.9
					c-1.142,0.209-2.545,0.748-4.18,1.932c-4.704,3.408-5.232,11.04-4.896,14.496c0.336,3.456,1.872,11.856,1.68,12.912
					c-0.192,1.056,1.461,0.384,2.195-0.192l0.398-4.08c3.062-2.022,4.57-8.113,4.971-9.989c0.009,1.278-0.111,3.526-0.844,6.245
					c0,0,2.024-2.548,2.192-6.118c1.818,0.904,5.281,2.118,7.792-0.122c0,0,3.353,2.385,7.605,2.963
					c2.253,0.682,5.347,1.158,8.475,0.157c0,0-2.117,0.086-4.468-0.238c2.705-0.525,5.468-2.123,7.78-5.666
					C422.449,148.996,420.529,148.372,420.865,147.604z"/>
				<path style="fill:#E89F71;" d="M387.422,161.068v-8.784c0,0-2.196-0.636-3.924,1.032
					C381.77,154.984,382.454,163.012,387.422,161.068z"/>
				<path style="fill:#E88566;" d="M384.674,155.01c-1.21,1.168-0.731,6.79,2.748,5.429v-6.152
					C387.422,154.287,385.884,153.841,384.674,155.01z"/>
				<path style="fill:#DE9071;" d="M404.61,177.837c-0.516,0.134-1.061,0.22-1.649,0.246c-3.952,0.176-9.822-2.058-12.559-4.057
					c-0.005,1.864-0.34,6.838-3.568,9.913c-4.032,3.84,3.759,11.328,8.463,11.424c4.704,0.096,9.489-7.584,9.489-7.584
					S403.764,183.259,404.61,177.837z"/>
				<path style="fill:#FFBC50;" d="M391.4,189.445l-5.275-4.018l-2.844-1.156c0,0,3.312,9.375,8.532,12.867l1.301-3.145
					L391.4,189.445z"/>
				<path style="fill:#D7BCA7;" d="M388.548,179.715c0,0,2.425,3.252,5.37,5.088l-3.437,6.336c0,0-6.177-3.864-7.84-8.172
					L388.548,179.715z"/>
				<path style="fill:#FFBC50;" d="M407.201,187.677c0,0-4.624,8.123-8.944,10.043l-2.16-2.549c0,0,3.648-2.304,4.176-5.856
					C400.801,185.763,407.201,187.677,407.201,187.677z"/>
				<path style="fill:#D7BCA7;" d="M404.276,182.499c0,0-2.85,2.495-5.826,3.648l0.672,5.761c0,0,6.493-1.864,8.413-4.168
					L404.276,182.499z"/>
				<path style="fill:#FFBC50;" d="M397.047,200.643l-4.453-0.672c0,0-1.152,13.152-13.823,17.375
					c-12.672,4.224-18.815,3.264-25.439,11.232l-1.056,10.752l14.688-0.48c0,0,5.323-7.45,13.824-10.368
					C393.649,224.066,399.004,211.298,397.047,200.643z"/>
				<path style="fill:#FF9F50;" d="M392.593,199.971c0,0-0.089,1.008-0.485,2.552c1.612,1.136,3.983,3.099,5.116,5.599
					c0.314-2.52,0.267-5.054-0.178-7.479L392.593,199.971z"/>
				<path style="fill:#FFD250;" d="M392.753,193.994c0,0-1.332,1.764-1.512,2.448c-0.18,0.684,0.648,4.464,1.044,4.644
					c0.396,0.18,4.536,0.504,5.76,0.288c0,0,1.332-2.628,1.332-3.654c0-1.026-0.72-3.438-1.26-3.474
					S392.753,193.994,392.753,193.994z"/>
				<path style="fill:#96746A;" d="M420.289,207.218c-0.72,7.92-2.592,21.023-2.592,21.023s1.014,1.5,1.847,3.035
					C421.107,220.259,420.289,207.218,420.289,207.218z"/>
				<path style="fill:#96746A;" d="M370.25,200.738c-0.144,1.656-1.656,5.328-1.656,5.328l-1.695-3.325c0,0,0.753,4.045,0,5.701
					c-0.753,1.656-2.553,13.968-2.553,13.968l0.858-1.287c0.413-0.858,1.126-3.919,1.793-7.058
					C371.546,203.081,370.25,200.738,370.25,200.738z"/>
				<path style="fill:#E89F71;" d="M391.562,247.393c0,0,13.68,4.536,15.551,4.536c1.872,0,6.552-2.016,7.416-1.584
					c0.864,0.432,1.08,1.872-0.36,2.592c-1.44,0.72-2.232,1.172-1.656,1.584c0.576,0.412,4.896,2.016,9.504,1.944
					c4.608-0.072,4.536,2.16,4.176,2.88c0,0,2.664,0.072,2.808,1.512c0.144,1.44-0.432,2.52-2.376,2.52c0,0,0.648,1.8-0.576,2.592
					c-1.224,0.792-3.744,0.72-5.76,0.648c0,0,1.512,1.8,0,2.304c-1.512,0.504-9.288,1.224-12.24-0.36
					c-2.952-1.584-4.752-6.192-7.848-7.2c-3.096-1.008-14.148-3.744-14.148-3.744L391.562,247.393z"/>
				<path style="fill:#DE9071;" d="M394.597,259.794c-1.877-3.291-1.663-10.065-1.564-11.919c-0.907-0.296-1.471-0.483-1.471-0.483
					l-5.508,10.224C386.053,257.617,390.54,258.727,394.597,259.794z"/>
				<path style="fill:#D7BCA7;" d="M385.298,242.44c0,0-5.544,14.288-5.832,14.887c-0.288,0.599,6.408,2.693,7.992,2.169
					c1.584-0.524,5.332-12.344,5.188-13.167C392.502,245.507,385.298,242.44,385.298,242.44z"/>
				<g>
					<path style="fill:#C27E68;" d="M420.289,266.616c0.375,0.013,0.769,0.025,1.167,0.033l-1.089-0.309l-0.053-0.016l-0.055,0.006
						c-0.049,0.003-4.954,0.486-8.24-0.493c-0.155-0.048-0.313,0.042-0.358,0.194c-0.045,0.152,0.042,0.313,0.194,0.358
						c3.244,0.969,7.824,0.575,8.407,0.52l0.294,0.083C420.414,266.768,420.289,266.616,420.289,266.616z"/>
					<path style="fill:#C27E68;" d="M426.104,259.07c-0.046,0.015-4.529,1.401-13.682-0.432c-0.148-0.028-0.307,0.07-0.339,0.226
						c-0.031,0.155,0.07,0.307,0.226,0.339c3.712,0.742,6.654,0.97,8.863,0.97c3.336,0,4.998-0.517,5.11-0.553
						c0.114-0.037,0.167-0.142,0.176-0.255c-0.152-0.014-0.265-0.02-0.265-0.02c0.036-0.071,0.066-0.161,0.092-0.258
						C426.227,259.066,426.166,259.052,426.104,259.07z"/>
					<path style="fill:#C27E68;" d="M426.602,263.09c-0.075,0.006-7.662,0.553-14.17-1.001c-0.159-0.039-0.31,0.059-0.347,0.213
						c-0.037,0.155,0.059,0.311,0.213,0.348c3.857,0.921,8.083,1.115,10.944,1.115c2.03,0,3.372-0.098,3.404-0.1
						c0.021-0.001,0.032-0.02,0.051-0.026c-0.038-0.157-0.073-0.261-0.073-0.261c0.105,0,0.19-0.015,0.287-0.021c0,0,0,0,0,0
						C426.899,263.195,426.769,263.067,426.602,263.09z"/>
				</g>
				<path style="fill:#96746A;" d="M374.025,256.51c1.852,0.179,3.581,0.29,5.441,0.243c0,0-3.288-1.2-4.609-1.296
					c-1.321-0.096-3.095-0.96-4.607-1.824c-1.512-0.864-4.344-1.152-5.88-1.248c-1.536-0.096-2.112-0.672-2.88-1.248
					c-0.768-0.576-3.696-1.296-3.696-1.296s-0.484,3.953-1.132,7.995c3.927-1.726,8.306-2.423,12.573-1.974
					C370.838,256.03,372.422,256.354,374.025,256.51z"/>
				<path style="fill:#D7BCA7;" d="M447.696,230.402c0,0-0.768,18.335,0,18.719c0.768,0.384,7.296,0.48,8.352-0.864
					c1.056-1.344,0.96-16.223-0.192-16.992C454.703,230.497,447.696,230.402,447.696,230.402z"/>
				<path style="fill:#414149;" d="M326.247,444.378h7.392c0,0,3.296-1.789,4.512-1.824c1.419-0.04,5.376,1.824,5.376,1.824h28.511
					c0,0,0.397-4.992-2.291-6.144c-1.22-0.523-7.182-1.487-13.031-2.405c-5.706-0.895-9.445-1.531-11.317-3.979
					c-1.872-2.448-1.44-3.744-3.888-3.744c-2.448,0-2.736,2.736-6.768,1.728c-4.032-1.008-6.912-3.312-8.496-2.304
					c-1.584,1.008-2.016,9.504-2.16,10.656C323.943,439.339,326.247,444.378,326.247,444.378z"/>
				<path style="fill:#414149;" d="M464.845,444.378l6.438-3.632c0,0,1.991-3.178,3.033-3.805c1.216-0.732,6.264-0.722,6.264-0.722
					l23.645-12.502c0.291-0.154,0.42-0.497,0.298-0.803c-0.594-1.485-2.435-5.519-4.81-5.26c-1.32,0.144-6.987,2.234-12.532,4.309
					c-5.41,2.024-8.978,3.307-11.811,2.095c-2.833-1.212-3.094-2.553-5.226-1.35c-2.132,1.203-1.039,3.727-5.045,4.83
					c-4.007,1.103-7.647,0.512-8.532,2.168c-0.884,1.656,2.914,9.268,3.354,10.342C460.362,441.121,464.845,444.378,464.845,444.378
					z"/>
				<path style="fill:#E89F71;" d="M334.742,429.835c4.032,1.008,4.32-1.728,6.768-1.728c0.246,0,0.456,0.017,0.648,0.043
					l6.793-14.426c-2.34-0.956-5.781-2.297-9.924-3.712c-1.741-0.595-3.117-1.119-4.232-1.582l-7.107,18.897
					C329.355,427.602,331.726,429.081,334.742,429.835z"/>
				<path style="fill:#E89F71;" d="M465.099,427.537c3.124-0.86,3.152-2.582,4.021-3.87l-7.116-15.861
					c-1.938,0.709-4.309,1.8-6.149,3.357c-1.61,1.363-4.009,2.286-6.222,2.897l7.555,15.035
					C458.609,428.204,461.713,428.469,465.099,427.537z"/>
				<path style="fill:#B8B8B8;" d="M451.797,403.961c-0.266-0.775-26.676-77.536-31.691-81.66
					c-5.05-4.152-40.415-20.913-40.772-21.082l0.246-0.52c1.459,0.69,35.787,16.959,40.891,21.156
					c5.14,4.228,30.781,78.749,31.87,81.919L451.797,403.961z"/>
			</g>
			<g>
				<g>
					<polygon style="fill:#BB5455;" points="342.748,191.202 328.7,184.631 314.652,191.202 314.652,156.432 342.748,156.432 					
						"/>
					<g>
						<polygon style="fill:#FFFFFF;" points="335.842,187.972 337.128,188.574 337.128,159.49 335.842,159.49 						"/>
						<polygon style="fill:#FFFFFF;" points="320.272,188.574 321.557,187.972 321.557,159.49 320.272,159.49 						"/>
					</g>
					<path style="fill:#EA5455;" d="M354.415,146.908c0,2.571-4.081,4.465-4.835,6.785c-0.781,2.404,1.38,6.331-0.076,8.332
						c-1.471,2.021-5.883,1.171-7.904,2.643c-2.001,1.456-2.548,5.922-4.952,6.703c-2.32,0.753-5.377-2.514-7.948-2.514
						c-2.571,0-5.629,3.267-7.949,2.514c-2.404-0.781-2.951-5.247-4.952-6.703c-2.021-1.471-6.433-0.621-7.904-2.643
						c-1.456-2.001,0.705-5.927-0.076-8.332c-0.753-2.32-4.834-4.214-4.834-6.785c0-2.571,4.081-4.465,4.835-6.786
						c0.781-2.404-1.38-6.33,0.076-8.332c1.471-2.021,5.883-1.171,7.904-2.642c2.001-1.456,2.548-5.922,4.952-6.703
						c2.32-0.753,5.377,2.514,7.948,2.514c2.571,0,5.629-3.267,7.949-2.514c2.404,0.781,2.951,5.247,4.952,6.703
						c2.021,1.471,6.433,0.621,7.904,2.643c1.456,2.001-0.705,5.927,0.076,8.332C350.334,142.442,354.415,144.337,354.415,146.908z"
						/>
					
						<ellipse transform="matrix(0.2014 -0.9795 0.9795 0.2014 118.6161 439.2946)" style="fill:#FFFFFF;" cx="328.7" cy="146.908" rx="18.369" ry="18.369"/>
					
						<ellipse transform="matrix(0.2281 -0.9736 0.9736 0.2281 110.7007 433.4416)" style="fill:#FFB750;" cx="328.7" cy="146.908" rx="17.335" ry="17.335"/>
					<circle style="fill:#FFD350;" cx="328.7" cy="146.908" r="14.876"/>
					<polygon style="fill:#FFFFFF;" points="321.091,147.367 326.157,151.559 335.892,138.303 337.973,140.177 326.652,155.122 
						319.427,149.976 					"/>
				</g>
				<g>
					<path style="fill:#FFD350;" d="M555.545,133.079c0-11.904-10.025-21.467-22.093-20.707c-10.57,0.666-19.055,9.44-19.395,20.026
						c-0.164,5.128,1.535,9.853,4.47,13.554c2.892,3.647,5.114,7.787,6.174,12.32c0.65,2.781,1.26,4.907,1.695,9.208h16.799
						c0.435-4.298,1.044-6.422,1.693-9.202c1.06-4.536,3.283-8.679,6.177-12.329C553.869,142.413,555.545,137.943,555.545,133.079z"
						/>
					
						<ellipse transform="matrix(0.9222 -0.3867 0.3867 0.9222 -9.818 217.1563)" style="fill:#F79950;" cx="534.795" cy="132.979" rx="17.121" ry="17.121"/>
					
						<ellipse transform="matrix(0.1595 -0.9872 0.9872 0.1595 318.2359 639.725)" style="fill:#FFAF50;" cx="534.795" cy="132.979" rx="14.404" ry="14.404"/>
					<path style="fill:#FFD350;" d="M544.144,170.926h-18.697c-0.952,0-1.723-0.771-1.723-1.723l0,0
						c0-0.952,0.771-1.723,1.723-1.723h18.697c0.952,0,1.723,0.772,1.723,1.723l0,0
						C545.867,170.155,545.095,170.926,544.144,170.926z"/>
					<path style="fill:#FFA850;" d="M540.395,174.893h-11.199c-1.369,0-2.479-1.11-2.479-2.478v-1.489h16.156v1.489
						C542.873,173.784,541.763,174.893,540.395,174.893z"/>
					<path style="fill:#FF8450;" d="M534.795,179.356L534.795,179.356c-1.232,0-2.231-0.999-2.231-2.231v-2.231h4.462v2.231
						C537.026,178.357,536.027,179.356,534.795,179.356z"/>
					<g>
						<rect x="534.118" y="103.323" style="fill:#F79950;" width="1.356" height="6.101"/>
						<g>
							<g>
								
									<rect x="521.245" y="106.397" transform="matrix(0.8826 -0.4702 0.4702 0.8826 9.9961 258.1952)" style="fill:#EA5455;" width="1.356" height="5.376"/>
								<rect x="505.224" y="132.979" style="fill:#EA5455;" width="5.564" height="1.356"/>
								
									<rect x="510.11" y="115.746" transform="matrix(0.5488 -0.8359 0.8359 0.5488 131.3412 480.4925)" style="fill:#F79950;" width="1.356" height="5.657"/>
							</g>
							<g>
								
									<rect x="544.979" y="108.407" transform="matrix(0.4701 -0.8826 0.8826 0.4701 193.9134 541.1693)" style="fill:#EA5455;" width="5.376" height="1.356"/>
								<rect x="558.802" y="132.979" style="fill:#EA5455;" width="5.564" height="1.356"/>
								
									<rect x="555.974" y="117.897" transform="matrix(0.8359 -0.5488 0.5488 0.8359 26.6077 326.1531)" style="fill:#F79950;" width="5.657" height="1.356"/>
							</g>
						</g>
					</g>
					<path style="fill:#FFFFFF;" d="M540.91,139.665c-0.017,0-0.033,0-0.05-0.001c-0.63-0.019-1.177-0.39-1.427-0.969l-2.013-4.665
						c-0.101-0.233-0.305-0.254-0.393-0.256c-0.085,0.001-0.291,0.028-0.388,0.263l-1.858,4.552
						c-0.268,0.656-0.894,1.048-1.604,0.996c-0.706-0.051-1.273-0.528-1.444-1.215l-2.329-9.376
						c-0.072-0.288-0.322-0.319-0.397-0.321c-0.077-0.005-0.327,0.012-0.417,0.295l-2.104,6.652h-5.05v-1.184h4.183l1.843-5.825
						c0.219-0.694,0.852-1.144,1.583-1.122c0.727,0.023,1.334,0.513,1.509,1.219l2.33,9.376c0.068,0.277,0.308,0.315,0.38,0.32
						c0.073,0.005,0.314,0.002,0.422-0.262l1.858-4.552c0.249-0.61,0.813-0.993,1.472-1c0.005,0,0.011,0,0.017,0
						c0.652,0,1.216,0.371,1.474,0.971l2.013,4.665c0.096,0.223,0.295,0.253,0.376,0.255c0.075,0.002,0.281-0.015,0.391-0.232
						l2.27-4.503h4.599v1.184h-3.87l-1.941,3.852C542.067,139.33,541.521,139.665,540.91,139.665z"/>
				</g>
				<g>
					<path style="fill:#F79950;" d="M752.784,368.234v-6.981h-7.679c-0.387-1.669-1.043-3.233-1.924-4.645l5.43-5.43l-4.936-4.936
						l-5.43,5.43c-1.412-0.881-2.976-1.537-4.645-1.924v-7.679h-6.981v7.679c-1.669,0.387-3.233,1.043-4.645,1.924l-5.43-5.43
						l-4.936,4.936l5.43,5.43c-0.88,1.412-1.537,2.976-1.924,4.645h-7.679v6.981h7.679c0.387,1.669,1.043,3.233,1.924,4.645
						l-5.43,5.43l4.936,4.936l5.43-5.43c1.412,0.88,2.976,1.537,4.645,1.924v7.679h6.981v-7.679
						c1.669-0.387,3.233-1.043,4.645-1.924l5.43,5.43l4.936-4.936l-5.43-5.43c0.88-1.412,1.537-2.976,1.924-4.645H752.784z
						 M730.109,372.037c-4.028,0-7.294-3.266-7.294-7.294c0-4.028,3.266-7.294,7.294-7.294c4.028,0,7.294,3.266,7.294,7.294
						C737.403,368.772,734.138,372.037,730.109,372.037z"/>
					<path style="fill:#EA5455;" d="M710.195,347.581v-4.415h-4.857c-0.245-1.055-0.66-2.045-1.217-2.938l3.434-3.434l-3.122-3.122
						L701,337.107c-0.893-0.557-1.882-0.972-2.938-1.217v-4.856h-4.415v4.856c-1.055,0.245-2.045,0.66-2.938,1.217l-3.434-3.434
						l-3.122,3.122l3.434,3.434c-0.557,0.893-0.972,1.882-1.217,2.938h-4.856v4.415h4.856c0.245,1.055,0.66,2.045,1.217,2.938
						l-3.434,3.434l3.122,3.122l3.434-3.434c0.893,0.557,1.882,0.972,2.938,1.217v4.856h4.415v-4.856
						c1.055-0.245,2.045-0.66,2.938-1.217l3.434,3.434l3.122-3.122l-3.434-3.434c0.557-0.893,0.972-1.882,1.217-2.938H710.195z
						 M695.855,349.987c-2.548,0-4.613-2.065-4.613-4.613c0-2.548,2.065-4.613,4.613-4.613c2.548,0,4.613,2.065,4.613,4.613
						C700.468,347.921,698.403,349.987,695.855,349.987z"/>
					<path style="fill:#FFB750;" d="M707.158,381.336v-2.63h-2.893c-0.146-0.629-0.393-1.218-0.725-1.75l2.046-2.046l-1.86-1.86
						l-2.046,2.046c-0.532-0.332-1.121-0.579-1.75-0.725v-2.893h-2.63v2.893c-0.629,0.146-1.218,0.393-1.75,0.725l-2.046-2.046
						l-1.86,1.86l2.046,2.046c-0.332,0.532-0.579,1.121-0.725,1.75h-2.893v2.63h2.893c0.146,0.629,0.393,1.218,0.725,1.75
						l-2.046,2.046l1.86,1.86l2.046-2.046c0.532,0.332,1.121,0.579,1.75,0.725v2.893h2.63v-2.893
						c0.629-0.146,1.218-0.393,1.75-0.725l2.046,2.046l1.86-1.86l-2.046-2.046c0.332-0.532,0.579-1.121,0.725-1.75H707.158z
						 M698.615,382.768c-1.518,0-2.748-1.23-2.748-2.748c0-1.518,1.23-2.748,2.748-2.748c1.518,0,2.748,1.23,2.748,2.748
						C701.363,381.538,700.132,382.768,698.615,382.768z"/>
					<path style="fill:#FFD350;" d="M750.545,332.349v-2.63h-2.893c-0.146-0.629-0.393-1.218-0.725-1.75l2.046-2.046l-1.86-1.86
						l-2.046,2.046c-0.532-0.332-1.121-0.579-1.75-0.725v-2.893h-2.63v2.893c-0.629,0.146-1.218,0.393-1.75,0.725l-2.046-2.046
						l-1.86,1.86l2.046,2.046c-0.332,0.532-0.579,1.121-0.725,1.75h-2.893v2.63h2.893c0.146,0.629,0.393,1.218,0.725,1.75
						l-2.046,2.046l1.86,1.86l2.046-2.046c0.532,0.332,1.121,0.579,1.75,0.725v2.893h2.63v-2.893
						c0.629-0.146,1.218-0.393,1.75-0.725l2.046,2.046l1.86-1.86l-2.046-2.046c0.332-0.532,0.579-1.121,0.725-1.75H750.545z
						 M742.002,333.782c-1.518,0-2.748-1.23-2.748-2.748c0-1.518,1.23-2.748,2.748-2.748c1.518,0,2.748,1.23,2.748,2.748
						C744.75,332.552,743.519,333.782,742.002,333.782z"/>
					<path style="fill:#EA5455;" d="M750.554,393.258v-1.787h-1.966c-0.099-0.427-0.267-0.828-0.492-1.189l1.39-1.39l-1.264-1.264
						l-1.39,1.39c-0.361-0.225-0.762-0.393-1.189-0.492v-1.966h-1.787v1.966c-0.427,0.099-0.828,0.267-1.189,0.492l-1.39-1.39
						l-1.264,1.264l1.39,1.39c-0.225,0.361-0.393,0.762-0.492,1.189h-1.966v1.787h1.966c0.099,0.427,0.267,0.828,0.492,1.189
						l-1.39,1.39l1.264,1.263l1.39-1.39c0.361,0.225,0.762,0.393,1.189,0.492v1.966h1.787v-1.966
						c0.427-0.099,0.828-0.267,1.189-0.492l1.39,1.39l1.264-1.263l-1.39-1.39c0.225-0.361,0.393-0.762,0.492-1.189H750.554z
						 M744.75,394.231c-1.031,0-1.867-0.836-1.867-1.867c0-1.031,0.836-1.867,1.867-1.867c1.031,0,1.867,0.836,1.867,1.867
						C746.617,393.395,745.781,394.231,744.75,394.231z"/>
				</g>
				<g>
					<path style="fill:#F79950;" d="M671.678,192.934h32.684c2.797,0,5.065,2.268,5.065,5.065v17.863
						c0,2.797-2.268,5.065-5.065,5.065l0,0c-1.48,0-2.776,0.994-3.159,2.424l-0.334,1.247c-0.218,0.814-1.209,1.126-1.853,0.582
						l-4.132-3.484c-0.59-0.497-1.336-0.77-2.108-0.77h-21.098c-2.797,0-5.065-2.268-5.065-5.065v-17.863
						C666.613,195.202,668.88,192.934,671.678,192.934z"/>
					<path style="fill:#EA5455;" d="M674.937,207.397h-44.208c-4.413,0-7.99,3.577-7.99,7.99v23.985
						c0,4.075,3.304,7.379,7.379,7.379l0,0c1.806,0,3.27,1.464,3.27,3.27v6.466c0,1.066,1.325,1.559,2.022,0.752l8.08-9.355
						c0.621-0.719,1.524-1.133,2.475-1.133h28.973c4.413,0,7.99-3.577,7.99-7.99v-23.374
						C682.927,210.974,679.35,207.397,674.937,207.397z"/>
					<g>
						<rect x="627.361" y="214.312" style="fill:#FFFFFF;" width="49.111" height="1.919"/>
						<g>
							<rect x="627.361" y="221.697" style="fill:#FFFFFF;" width="8.527" height="1.919"/>
							<rect x="642.644" y="221.697" style="fill:#FFFFFF;" width="33.829" height="1.919"/>
						</g>
						<g>
							<rect x="666.613" y="229.082" style="fill:#DEE8EB;" width="9.86" height="1.919"/>
							<rect x="627.361" y="229.082" style="fill:#FFFFFF;" width="30.564" height="1.919"/>
						</g>
						<rect x="627.361" y="236.467" style="fill:#FFFFFF;" width="49.111" height="1.919"/>
					</g>
					<path style="fill:#FFD350;" d="M712.163,228.629h-48.288c-3.286,0-5.95,2.664-5.95,5.95v27.454c0,3.286,2.664,5.95,5.95,5.95
						h28.784c0.789,0,1.552,0.286,2.147,0.804l9.408,8.194c0.695,0.605,1.783,0.189,1.898-0.725l0.676-5.409
						c0.205-1.636,1.595-2.864,3.244-2.864h2.131c3.286,0,5.95-2.664,5.95-5.95v-27.454
						C718.113,231.293,715.449,228.629,712.163,228.629z"/>
					<g>
						<g>
							<rect x="663.732" y="234.797" style="fill:#C08950;" width="9.98" height="2.054"/>
							<rect x="678.494" y="234.797" style="fill:#C08950;" width="34.754" height="2.054"/>
						</g>
						<rect x="662.791" y="242.715" style="fill:#C08950;" width="49.516" height="2.054"/>
						<rect x="662.791" y="258.552" style="fill:#C08950;" width="49.516" height="2.054"/>
						<g>
							<rect x="662.791" y="250.634" style="fill:#C08950;" width="32.139" height="2.054"/>
							<rect x="700.939" y="250.634" style="fill:#C08950;" width="11.368" height="2.054"/>
						</g>
					</g>
				</g>
				<g>
					<g>
						<path style="fill:#FFB750;" d="M304.833,372.791c0-12.457-14.42-22.555-32.207-22.555c-17.788,0-32.207,10.098-32.207,22.555
							c0,12.457,14.42,22.555,32.207,22.555c5.684,0,11.02-1.035,15.655-2.844l10.096,7.145l-1.448-12.065
							C301.848,383.622,304.833,378.452,304.833,372.791z"/>
						<g>
							<path style="fill:#EA5455;" d="M243.221,398.399c0-7.539,8.727-13.651,19.493-13.651s19.493,6.112,19.493,13.651
								c0,7.54-8.727,13.652-19.493,13.652c-3.44,0-6.67-0.626-9.475-1.722l-6.111,4.325l0.876-7.302
								C245.027,404.954,243.221,401.825,243.221,398.399z"/>
						</g>
					</g>
					<g>
						<rect x="253.431" y="361.894" style="fill:#C08950;" width="41.096" height="1.597"/>
						<rect x="253.431" y="377.649" style="fill:#C08950;" width="41.096" height="1.597"/>
						<g>
							<rect x="284.853" y="369.771" style="fill:#C08950;" width="9.674" height="1.597"/>
							<rect x="253.431" y="369.771" style="fill:#C08950;" width="22.819" height="1.597"/>
						</g>
					</g>
				</g>
				<g>
					<path style="fill:#FFB750;" d="M260.374,402.483c0-1.12,0.136-2.011,0.408-2.676c0.272-0.663,0.769-1.318,1.492-1.961
						c0.723-0.645,1.205-1.168,1.445-1.573c0.24-0.404,0.36-0.831,0.36-1.279c0-1.352-0.624-2.029-1.871-2.029
						c-0.591,0-1.065,0.182-1.42,0.546c-0.355,0.365-0.542,0.867-0.558,1.508h-3.476c0.016-1.528,0.509-2.724,1.481-3.588
						c0.971-0.864,2.296-1.296,3.974-1.296c1.694,0,3.009,0.41,3.944,1.23c0.935,0.82,1.403,1.978,1.403,3.474
						c0,0.68-0.152,1.321-0.456,1.926c-0.304,0.604-0.835,1.274-1.594,2.009l-0.971,0.925c-0.607,0.584-0.955,1.268-1.043,2.051
						l-0.048,0.732H260.374z M260.026,406.158c0-0.534,0.182-0.974,0.546-1.32c0.364-0.347,0.829-0.521,1.397-0.521
						s1.033,0.174,1.397,0.521c0.364,0.347,0.546,0.786,0.546,1.32c0,0.526-0.178,0.96-0.534,1.302
						c-0.356,0.342-0.825,0.514-1.409,0.514c-0.583,0-1.053-0.172-1.408-0.514C260.204,407.118,260.026,406.684,260.026,406.158z"/>
				</g>
			</g>
		</g>
	</g>
</g>
</svg>
