<?xml version="1.0" standalone="no"?>
<!DOCTYPE svg PUBLIC "-//W3C//DTD SVG 20010904//EN"
 "http://www.w3.org/TR/2001/REC-SVG-20010904/DTD/svg10.dtd">
<svg version="1.0" xmlns="http://www.w3.org/2000/svg"
 width="2000.000000pt" height="2000.000000pt" viewBox="0 0 2000.000000 2000.000000"
 preserveAspectRatio="xMidYMid meet">

<g transform="translate(0.000000,2000.000000) scale(0.100000,-0.100000)"
fill="#000000" stroke="none">
<path d="M5582 17849 c-17 -12 -34 -31 -37 -43 -10 -39 -1 -479 10 -483 6 -1
25 6 43 17 l32 20 0 255 c0 140 -3 255 -7 255 -5 0 -23 -10 -41 -21z"/>
<path d="M9422 17859 c-53 -10 -93 -30 -317 -161 -99 -57 -331 -192 -515 -298
-184 -106 -506 -292 -715 -413 -209 -121 -443 -256 -520 -300 -77 -44 -295
-170 -485 -280 -190 -109 -419 -242 -510 -294 -91 -53 -210 -121 -265 -153
-110 -64 -787 -455 -1010 -583 -77 -44 -176 -101 -220 -127 -44 -26 -188 -109
-320 -185 -132 -76 -310 -179 -395 -228 -85 -49 -200 -115 -255 -147 -55 -32
-212 -123 -350 -202 -137 -80 -331 -192 -430 -248 -99 -57 -216 -125 -260
-150 -208 -120 -972 -561 -1215 -702 -164 -94 -212 -136 -252 -216 l-23 -47 0
-3240 0 -3240 23 -43 c58 -108 150 -158 278 -150 l74 5 257 148 c142 82 286
165 321 184 52 30 62 40 57 57 -28 118 -22 241 15 313 24 49 90 107 148 133
98 43 255 16 393 -66 33 -20 65 -36 70 -36 6 0 435 246 955 546 520 300 947
544 949 542 2 -2 -74 -157 -168 -345 l-172 -342 -250 -196 c-299 -235 -311
-246 -341 -310 -21 -43 -24 -65 -24 -164 0 -134 16 -179 83 -237 38 -32 861
-514 997 -584 83 -42 155 -60 265 -67 111 -6 216 7 303 37 30 11 148 73 261
139 113 65 366 211 561 324 195 113 512 296 704 406 192 111 364 213 382 227
18 14 44 49 59 77 21 42 25 65 25 131 0 45 -5 99 -11 121 -22 77 -74 114 -576
403 -260 150 -496 284 -525 297 -187 85 -456 96 -649 25 -46 -16 -87 -30 -92
-30 -29 0 87 522 141 630 19 38 -164 -69 2507 1472 677 390 1245 721 1263 736
19 15 50 54 70 86 l37 59 5 836 5 835 235 137 c247 143 278 169 300 248 6 22
10 213 10 479 l0 443 -27 26 c-42 38 -142 93 -171 93 -14 0 -91 -38 -171 -84
-80 -47 -154 -88 -164 -92 -16 -6 -17 6 -15 207 l3 214 70 41 c39 23 142 83
230 133 88 51 172 106 187 123 59 68 58 54 58 853 0 645 -2 733 -16 753 -8 12
-19 22 -24 22 -5 0 -39 18 -76 39 -43 25 -76 38 -91 35 -13 -3 -94 -45 -180
-94 -85 -50 -157 -90 -159 -90 -2 0 -4 296 -4 658 l0 657 -24 51 c-61 132
-174 190 -314 163z m58 -1107 l0 -587 -586 -340 c-323 -187 -591 -341 -595
-343 -5 -2 -9 172 -9 387 l0 391 -24 11 c-25 12 -6 23 -546 -291 -252 -147
-707 -410 -1045 -605 -154 -89 -338 -195 -410 -237 -71 -41 -206 -119 -300
-173 -523 -301 -1201 -694 -1270 -735 -44 -26 -188 -109 -320 -185 -132 -76
-379 -219 -550 -317 -745 -432 -906 -525 -1285 -743 -190 -109 -357 -207 -373
-217 l-27 -19 0 -2353 c0 -1816 3 -2355 12 -2364 7 -7 22 -12 35 -12 12 0 165
83 340 184 175 101 550 317 833 481 283 164 729 422 990 573 261 151 639 369
840 485 201 116 435 251 520 300 176 102 1425 824 1660 961 85 49 187 108 226
130 39 23 211 122 382 221 l312 180 0 226 c0 169 3 229 13 236 6 6 86 53 177
105 213 123 295 170 640 370 285 165 344 198 355 198 3 0 5 -141 5 -312 0
-309 -1 -314 -24 -364 -29 -63 -31 -64 -396 -274 -157 -90 -496 -286 -755
-435 -258 -150 -652 -377 -875 -505 -577 -333 -1093 -630 -1325 -765 -55 -32
-264 -152 -465 -268 -201 -115 -417 -240 -480 -277 -129 -76 -977 -565 -1325
-765 -100 -57 -554 -320 -710 -410 -152 -88 -1131 -653 -1207 -697 -37 -21
-70 -38 -73 -38 -3 0 -4 1199 -3 2664 l3 2664 30 42 c27 38 128 99 905 547
845 488 2266 1308 4445 2566 572 330 1310 757 1640 948 330 191 603 348 608
348 4 1 7 -263 7 -587z m748 -441 c7 -46 -32 -102 -59 -85 -15 9 -10 68 7 92
20 28 48 25 52 -7z m-123 -60 c8 -27 -3 -66 -26 -87 -15 -14 -21 -14 -34 -4
-19 16 -19 43 0 80 18 34 51 40 60 11z m-127 -92 c4 -43 -26 -86 -51 -76 -22
8 -22 65 -1 95 23 34 48 24 52 -19z m292 -604 c0 -691 1 -673 -56 -727 -16
-15 -198 -124 -404 -244 -429 -247 -806 -466 -1720 -994 -355 -205 -829 -480
-1055 -610 -225 -130 -657 -380 -960 -555 -302 -175 -573 -332 -602 -347 l-51
-29 -16 23 c-14 20 -16 96 -16 664 l0 642 223 128 c122 70 328 189 457 264
129 75 314 181 410 237 96 55 303 175 460 266 481 277 1485 858 1870 1080 201
115 493 284 650 375 157 91 373 216 480 277 107 62 222 129 255 148 33 20 63
36 68 37 4 0 7 -286 7 -635z m-2042 568 c4 -30 -23 -80 -49 -88 -30 -10 -52
15 -44 47 15 61 86 92 93 41z m42 -501 l0 -157 -392 -227 c-216 -124 -694
-400 -1063 -613 -368 -213 -818 -473 -1000 -578 -504 -290 -512 -295 -541
-330 -56 -66 -54 -37 -54 -829 1 -576 3 -738 13 -756 16 -28 160 -112 192
-112 18 0 1287 727 2803 1606 l42 25 -2 -216 -3 -216 -295 -171 c-162 -94
-428 -247 -590 -341 -356 -205 -610 -352 -1440 -832 -349 -202 -645 -376 -657
-388 -13 -11 -32 -39 -43 -62 -19 -40 -20 -61 -20 -497 0 -420 1 -457 18 -476
25 -31 157 -102 188 -102 16 0 179 89 417 227 216 124 518 299 672 388 154 89
586 339 960 555 374 216 705 407 735 426 l55 33 3 -212 c2 -193 1 -213 -15
-225 -17 -12 -519 -303 -1738 -1007 -302 -175 -660 -382 -795 -460 -337 -195
-1065 -617 -1605 -928 -611 -352 -627 -362 -1313 -759 -332 -192 -611 -348
-620 -346 -16 3 -17 139 -20 2108 l-2 2105 992 575 c1161 671 1968 1138 2298
1328 326 188 796 460 1170 677 292 169 1068 618 1465 847 94 54 173 98 178 98
4 0 7 -71 7 -158z m1203 -1703 c-7 -7 -379 -223 -959 -557 -117 -67 -214 -122
-218 -122 -3 0 -6 96 -6 213 l0 212 223 128 c122 70 389 224 592 341 l370 214
3 -211 c1 -116 -1 -214 -5 -218z m755 140 c4 -43 -26 -86 -51 -76 -22 8 -22
65 -1 95 23 34 48 24 52 -19z m-127 -52 c15 -33 -12 -97 -40 -97 -36 0 -38 62
-3 103 20 23 30 22 43 -6z m-123 -90 c4 -35 -22 -77 -48 -77 -16 0 -20 7 -20
35 0 45 19 76 45 73 14 -2 21 -12 23 -31z m72 -501 c0 -106 -4 -177 -10 -181
-7 -4 -10 57 -10 174 0 114 4 181 10 181 6 0 10 -65 10 -174z m90 49 c0 -70
-4 -115 -10 -115 -6 0 -10 45 -10 115 0 70 4 115 10 115 6 0 10 -45 10 -115z
m50 25 c0 -25 -18 -36 -26 -16 -8 21 3 49 16 41 5 -3 10 -15 10 -25z m-280
-155 c0 -110 -4 -175 -10 -175 -6 0 -10 65 -10 175 0 110 4 175 10 175 6 0 10
-65 10 -175z m180 105 c0 -40 -4 -70 -10 -70 -11 0 -14 123 -3 133 12 13 13 7
13 -63z m-270 -161 c0 -131 -3 -198 -10 -194 -6 4 -10 82 -10 201 0 123 4 194
10 194 6 0 10 -74 10 -201z m50 31 c0 -87 -4 -140 -10 -140 -6 0 -10 53 -10
140 0 87 4 140 10 140 6 0 10 -53 10 -140z m90 44 c0 -43 -4 -74 -10 -74 -6 0
-10 34 -10 81 0 51 4 78 10 74 6 -3 10 -40 10 -81z m-360 -199 c0 -170 -4
-265 -10 -265 -6 0 -10 95 -10 265 0 170 4 265 10 265 6 0 10 -95 10 -265z
m400 230 c0 -19 -4 -35 -10 -35 -5 0 -10 16 -10 35 0 19 5 35 10 35 6 0 10
-16 10 -35z m-360 -205 c0 -127 -4 -200 -10 -200 -6 0 -10 71 -10 193 0 170 3
207 17 207 2 0 3 -90 3 -200z m140 75 c0 -41 -4 -77 -10 -80 -6 -4 -10 25 -10
80 0 55 4 84 10 80 6 -3 10 -39 10 -80z m-90 -50 c0 -57 -4 -95 -10 -95 -6 0
-10 38 -10 95 0 57 4 95 10 95 6 0 10 -38 10 -95z m48 21 c-2 -15 -7 -28 -13
-29 -12 -2 -19 38 -10 60 9 25 27 1 23 -31z m-188 -101 c0 -83 -4 -135 -10
-135 -6 0 -10 52 -10 135 0 83 4 135 10 135 6 0 10 -52 10 -135z m-180 -106
c0 -131 -3 -198 -10 -194 -6 4 -10 82 -10 201 0 123 4 194 10 194 6 0 10 -74
10 -201z m140 81 c0 -27 -4 -52 -10 -55 -6 -4 -10 17 -10 55 0 38 4 59 10 55
6 -3 10 -28 10 -55z m-90 -50 c0 -60 -4 -100 -10 -100 -6 0 -10 40 -10 100 0
60 4 100 10 100 6 0 10 -40 10 -100z m-140 -86 c0 -114 -3 -173 -10 -169 -6 4
-10 73 -10 176 0 106 4 169 10 169 6 0 10 -65 10 -176z m50 31 c0 -78 -4 -136
-10 -140 -6 -4 -10 45 -10 140 0 95 4 144 10 140 6 -4 10 -62 10 -140z m130
80 c0 -19 -4 -35 -10 -35 -11 0 -14 53 -3 63 11 12 13 8 13 -28z m-310 -179
c0 -106 -4 -177 -10 -181 -7 -4 -10 57 -10 174 0 114 4 181 10 181 6 0 10 -65
10 -174z m90 49 c0 -43 -4 -75 -10 -75 -6 0 -10 32 -10 75 0 43 4 75 10 75 6
0 10 -32 10 -75z m-50 -25 c0 -22 -4 -40 -10 -40 -11 0 -14 63 -3 73 11 12 13
8 13 -33z m-130 -79 c0 -63 -4 -112 -10 -116 -6 -4 -10 35 -10 109 0 71 4 116
10 116 6 0 10 -43 10 -109z m40 24 c0 -37 -4 -65 -10 -65 -6 0 -10 28 -10 65
0 37 4 65 10 65 6 0 10 -28 10 -65z m-220 -130 c0 -110 -4 -175 -10 -175 -6 0
-10 65 -10 175 0 110 4 175 10 175 6 0 10 -65 10 -175z m90 56 c0 -63 -4 -112
-10 -116 -6 -4 -10 35 -10 109 0 71 4 116 10 116 6 0 10 -43 10 -109z m40 24
c0 -14 -4 -25 -10 -25 -5 0 -10 11 -10 25 0 14 5 25 10 25 6 0 10 -11 10 -25z
m-270 -160 c0 -110 -4 -175 -10 -175 -6 0 -10 65 -10 175 0 110 4 175 10 175
6 0 10 -65 10 -175z m180 104 c0 -44 -4 -68 -10 -64 -5 3 -10 35 -10 71 0 36
4 64 10 64 6 0 10 -30 10 -71z m-270 -154 c0 -123 -4 -195 -10 -195 -6 0 -10
72 -10 195 0 123 4 195 10 195 6 0 10 -72 10 -195z m-6290 121 c0 -40 -4 -48
-35 -72 -48 -37 -69 -27 -62 29 4 30 14 48 34 64 45 37 63 31 63 -21z m6340
-97 c0 -108 -3 -140 -12 -137 -10 3 -14 43 -16 141 -2 117 0 137 13 137 13 0
15 -21 15 -141z m90 57 c0 -72 -11 -104 -24 -70 -8 21 -8 129 1 137 17 18 23
1 23 -67z m40 24 c0 -22 -4 -40 -10 -40 -11 0 -14 63 -3 73 11 12 13 8 13 -33z
m-400 -235 c0 -170 -4 -265 -10 -265 -6 0 -10 95 -10 265 0 170 4 265 10 265
6 0 10 -95 10 -265z m40 24 c0 -131 -3 -198 -10 -194 -6 4 -10 82 -10 201 0
123 4 194 10 194 6 0 10 -74 10 -201z m140 75 c0 -56 -3 -75 -12 -72 -14 5
-24 118 -14 145 13 33 26 -4 26 -73z m-90 -50 c0 -56 -4 -94 -10 -94 -6 0 -10
40 -10 101 0 64 4 98 10 94 6 -3 10 -48 10 -101z m40 31 c0 -19 -4 -35 -10
-35 -5 0 -10 16 -10 35 0 19 5 35 10 35 6 0 10 -16 10 -35z m-180 -111 c0 -87
-4 -133 -10 -129 -6 4 -10 60 -10 136 0 79 4 129 10 129 6 0 10 -52 10 -136z
m-180 -99 c0 -123 -4 -195 -10 -195 -6 0 -10 72 -10 195 0 123 4 195 10 195 6
0 10 -72 10 -195z m140 79 c0 -40 -4 -55 -12 -52 -14 5 -23 70 -14 94 12 32
26 11 26 -42z m-230 -129 c0 -110 -4 -175 -10 -175 -6 0 -10 65 -10 175 0 110
4 175 10 175 6 0 10 -65 10 -175z m138 78 c-4 -127 -22 -125 -26 2 -2 81 0 95
13 95 13 0 15 -14 13 -97z m-88 -53 c0 -118 -2 -140 -15 -140 -13 0 -15 21
-15 133 0 74 3 137 7 140 19 19 23 -5 23 -133z m130 80 c0 -16 -4 -30 -10 -30
-5 0 -10 14 -10 30 0 17 5 30 10 30 6 0 10 -13 10 -30z m-310 -185 c0 -149 -2
-175 -15 -175 -13 0 -15 26 -15 175 0 149 2 175 15 175 13 0 15 -26 15 -175z
m90 49 c0 -56 -3 -75 -12 -72 -14 5 -24 118 -14 145 13 33 26 -4 26 -73z
m-180 -105 c0 -90 -3 -109 -15 -109 -12 0 -15 19 -15 108 0 60 3 112 6 115 18
17 24 -14 24 -114z m130 80 c0 -24 -4 -38 -10 -34 -5 3 -10 22 -10 41 0 19 5
34 10 34 6 0 10 -18 10 -41z m-90 -49 c0 -40 -4 -70 -10 -70 -6 0 -10 30 -10
70 0 40 4 70 10 70 6 0 10 -30 10 -70z m-222 -133 c-4 -221 -22 -224 -26 -5
-3 166 1 199 19 181 6 -6 8 -75 7 -176z m92 52 c0 -90 -3 -109 -15 -109 -12 0
-15 19 -15 108 0 60 3 112 6 115 18 17 24 -14 24 -114z m40 26 c0 -14 -4 -25
-10 -25 -5 0 -10 11 -10 25 0 14 5 25 10 25 6 0 10 -11 10 -25z m-270 -155 c0
-107 -4 -170 -10 -170 -6 0 -10 63 -10 170 0 107 4 170 10 170 6 0 10 -63 10
-170z m180 105 c0 -37 -4 -65 -10 -65 -6 0 -10 28 -10 65 0 37 4 65 10 65 6 0
10 -28 10 -65z m-270 -155 c0 -127 -4 -200 -10 -200 -6 0 -10 73 -10 200 0
127 4 200 10 200 6 0 10 -73 10 -200z m48 19 c-4 -174 -22 -175 -26 -2 -3 132
1 164 19 146 6 -6 8 -64 7 -144z m90 56 c-2 -44 -8 -70 -15 -73 -10 -3 -13 16
-13 71 0 40 3 77 7 81 16 15 24 -15 21 -79z m42 30 c0 -19 -4 -35 -10 -35 -5
0 -10 16 -10 35 0 19 5 35 10 35 6 0 10 -16 10 -35z m-402 -237 c-2 -167 -7
-263 -13 -263 -6 0 -11 96 -13 263 -2 230 0 262 13 262 13 0 15 -32 13 -262z
m42 27 c0 -123 -4 -195 -10 -195 -6 0 -10 72 -10 195 0 123 4 195 10 195 6 0
10 -72 10 -195z m138 78 c-2 -44 -7 -78 -13 -78 -6 0 -11 34 -13 78 -2 65 0
77 13 77 13 0 15 -12 13 -77z m-90 -56 c-4 -111 -22 -115 -26 -5 -3 88 2 118
19 101 5 -5 9 -47 7 -96z m-138 -72 c0 -83 -4 -135 -10 -135 -6 0 -10 52 -10
135 0 83 4 135 10 135 6 0 10 -52 10 -135z m180 100 c0 -19 -4 -35 -10 -35 -5
0 -10 16 -10 35 0 19 5 35 10 35 6 0 10 -16 10 -35z m-360 -205 c0 -127 -4
-200 -10 -200 -6 0 -10 73 -10 200 0 127 4 200 10 200 6 0 10 -73 10 -200z
m48 19 c-4 -119 -22 -121 -26 -2 -3 93 2 123 19 106 5 -5 9 -50 7 -104z m90
61 c-4 -67 -22 -69 -26 -2 -2 42 0 52 13 52 13 0 15 -10 13 -50z m-228 -135
c0 -110 -4 -175 -10 -175 -6 0 -10 65 -10 175 0 110 4 175 10 175 6 0 10 -65
10 -175z m48 30 c-2 -82 -7 -135 -13 -135 -6 0 -11 53 -13 135 -2 117 0 135
13 135 13 0 15 -18 13 -135z m132 75 c0 -16 -4 -30 -10 -30 -5 0 -10 14 -10
30 0 17 5 30 10 30 6 0 10 -13 10 -30z m-312 -183 c-4 -221 -22 -224 -26 -5
-3 166 1 199 19 181 6 -6 8 -75 7 -176z m90 47 c-2 -38 -7 -69 -13 -69 -11 0
-19 119 -10 143 13 34 26 -8 23 -74z m-183 -97 c0 -147 -19 -146 -23 1 -2 89
0 113 10 110 10 -4 13 -33 13 -111z m135 78 c0 -19 -4 -35 -10 -35 -5 0 -10
16 -10 35 0 19 5 35 10 35 6 0 10 -16 10 -35z m-90 -49 c0 -36 -4 -68 -10 -71
-6 -4 -10 20 -10 64 0 41 4 71 10 71 6 0 10 -28 10 -64z m-230 -137 c0 -117
-3 -178 -10 -174 -6 4 -10 75 -10 181 0 109 4 174 10 174 6 0 10 -67 10 -181z
m90 56 c0 -70 -4 -115 -10 -115 -6 0 -10 45 -10 115 0 70 4 115 10 115 6 0 10
-45 10 -115z m50 25 c0 -10 -4 -22 -10 -25 -6 -4 -10 7 -10 25 0 18 4 29 10
25 6 -3 10 -15 10 -25z m-270 -155 c0 -110 -4 -175 -10 -175 -6 0 -10 65 -10
175 0 110 4 175 10 175 6 0 10 -65 10 -175z m180 99 c0 -36 -4 -64 -10 -64 -6
0 -10 30 -10 71 0 44 4 68 10 64 6 -3 10 -35 10 -71z m-270 -148 c0 -119 -4
-197 -10 -201 -7 -4 -10 63 -10 194 0 127 4 201 10 201 6 0 10 -71 10 -194z
m40 24 c0 -87 -4 -140 -10 -140 -6 0 -10 53 -10 140 0 87 4 140 10 140 6 0 10
-53 10 -140z m90 50 c0 -47 -4 -80 -10 -80 -6 0 -10 33 -10 80 0 47 4 80 10
80 6 0 10 -33 10 -80z m-360 -205 c0 -170 -4 -265 -10 -265 -6 0 -10 95 -10
265 0 170 4 265 10 265 6 0 10 -95 10 -265z m410 230 c0 -19 -4 -35 -10 -35
-5 0 -10 16 -10 35 0 19 5 35 10 35 6 0 10 -16 10 -35z m-360 -211 c0 -123 -4
-194 -10 -194 -6 0 -10 74 -10 201 0 131 3 198 10 194 6 -4 10 -82 10 -201z
m130 86 c0 -47 -4 -80 -10 -80 -11 0 -14 142 -3 153 12 13 13 7 13 -73z m-90
-55 c0 -57 -4 -95 -10 -95 -6 0 -10 38 -10 95 0 57 4 95 10 95 6 0 10 -38 10
-95z m50 31 c0 -19 -4 -38 -10 -41 -6 -4 -10 10 -10 34 0 23 5 41 10 41 6 0
10 -15 10 -34z m-180 -111 c0 -83 -4 -135 -10 -135 -6 0 -10 52 -10 135 0 83
4 135 10 135 6 0 10 -52 10 -135z m-180 -99 c0 -119 -4 -197 -10 -201 -7 -4
-10 63 -10 194 0 127 4 201 10 201 6 0 10 -71 10 -194z m130 73 c0 -37 -4 -58
-10 -54 -18 11 -12 115 7 115 2 0 3 -27 3 -61z m-220 -130 c0 -106 -4 -169
-10 -169 -6 0 -10 65 -10 176 0 114 3 173 10 169 6 -4 10 -73 10 -176z m130
81 c0 -60 -4 -100 -10 -100 -6 0 -10 40 -10 100 0 60 4 100 10 100 6 0 10 -40
10 -100z m-90 -50 c0 -87 -4 -140 -10 -140 -6 0 -10 51 -10 133 0 117 3 147
17 147 2 0 3 -63 3 -140z m140 75 c0 -13 -4 -27 -10 -30 -6 -4 -10 8 -10 30 0
22 4 34 10 30 6 -3 10 -17 10 -30z m-320 -180 c0 -110 -4 -175 -10 -175 -6 0
-10 65 -10 175 0 110 4 175 10 175 6 0 10 -65 10 -175z m90 50 c0 -43 -4 -75
-10 -75 -6 0 -10 32 -10 75 0 43 4 75 10 75 6 0 10 -32 10 -75z m-180 -100 c0
-70 -4 -115 -10 -115 -6 0 -10 43 -10 108 0 95 4 122 17 122 2 0 3 -52 3 -115z
m140 69 c0 -19 -4 -34 -10 -34 -5 0 -10 18 -10 41 0 24 4 38 10 34 6 -3 10
-22 10 -41z m-90 -49 c0 -37 -4 -65 -10 -65 -6 0 -10 28 -10 65 0 37 4 65 10
65 6 0 10 -28 10 -65z m-90 -50 c0 -14 -4 -25 -10 -25 -5 0 -10 11 -10 25 0
14 5 25 10 25 6 0 10 -11 10 -25z m424 -1521 c9 -23 -18 -79 -50 -101 -72 -50
-357 -204 -372 -201 -29 5 -26 53 5 88 32 36 358 227 389 229 12 1 25 -6 28
-15z"/>
<path d="M3840 12869 c-344 -198 -767 -441 -940 -541 -173 -100 -327 -192
-343 -206 -15 -14 -36 -44 -47 -67 -20 -41 -20 -62 -20 -1683 l0 -1641 23 -25
c26 -30 159 -106 184 -106 9 0 58 23 108 52 704 405 1804 1043 1817 1055 10 9
29 38 43 66 l25 51 0 1645 c0 906 -4 1652 -8 1659 -14 22 -164 102 -191 102
-16 0 -273 -143 -651 -361z m-630 -1659 l0 -119 -77 -45 c-42 -25 -81 -42 -85
-40 -10 6 -10 215 0 230 8 11 142 93 155 94 4 0 7 -54 7 -120z m0 -340 l0
-119 -77 -45 c-42 -25 -81 -42 -85 -40 -10 6 -10 215 0 230 8 12 143 94 155
94 4 0 7 -54 7 -120z m-2 -341 l-3 -121 -75 -43 c-41 -24 -78 -41 -82 -38 -10
5 -10 215 0 229 8 12 143 94 155 94 4 0 6 -55 5 -121z m2 -338 l0 -119 -77
-45 c-42 -25 -81 -43 -85 -41 -10 6 -10 215 0 230 8 11 142 93 155 94 4 0 7
-54 7 -119z m-2 -342 l-3 -121 -75 -43 c-41 -24 -78 -41 -82 -38 -10 6 -10
214 0 230 7 12 141 92 155 92 4 1 6 -54 5 -120z m0 -340 l-3 -121 -75 -43
c-41 -24 -78 -41 -82 -38 -10 5 -10 215 0 229 8 12 142 93 155 94 4 0 6 -55 5
-121z"/>
<path d="M5371 17724 l-31 -26 0 -242 c0 -134 3 -245 6 -249 8 -7 66 21 76 37
4 6 8 122 8 259 0 272 0 271 -59 221z"/>
<path d="M16015 16915 c-25 -51 -27 -63 -22 -135 5 -80 5 -80 -19 -80 -58 0
-125 -61 -144 -131 -13 -47 -6 -87 25 -148 l22 -44 -28 -55 c-45 -85 -37 -153
25 -211 29 -27 25 -34 56 84 40 152 91 213 197 235 83 18 145 0 363 -106 218
-105 316 -134 466 -134 l82 0 -25 -62 c-34 -84 -42 -203 -19 -296 l16 -69 -25
-55 c-58 -126 -70 -304 -28 -399 26 -59 80 -104 142 -120 l51 -13 0 -59 c0
-68 9 -67 56 8 26 41 29 42 69 37 24 -2 59 1 79 8 83 27 185 170 221 310 13
50 16 87 11 165 -4 55 -7 111 -8 125 -1 14 4 62 10 108 8 58 8 105 1 163 -15
124 -89 289 -89 200 0 -38 -24 -158 -52 -261 l-20 -76 -71 24 c-46 15 -89 22
-120 20 -30 -2 -46 1 -43 7 2 6 20 67 39 135 86 299 98 392 58 468 -33 64
-135 157 -221 201 -222 113 -404 147 -620 116 -135 -19 -263 -21 -305 -5 -37
14 -62 36 -85 73 l-18 29 -27 -57z m1391 -1030 c20 -10 24 -15 11 -15 -38 0
-118 -51 -158 -102 -87 -110 -124 -220 -124 -368 0 -100 2 -108 32 -162 l32
-56 -31 8 c-72 21 -108 70 -127 175 -34 181 77 440 219 515 43 23 108 25 146
5z"/>
<path d="M16009 16121 c-21 -22 -29 -39 -29 -65 l0 -36 48 19 c138 56 139 56
96 90 -38 30 -80 27 -115 -8z"/>
<path d="M16638 16064 c-16 -8 -28 -19 -28 -24 0 -4 31 -31 70 -59 65 -47 70
-50 80 -32 21 41 -1 99 -45 119 -33 15 -44 15 -77 -4z"/>
<path d="M16022 15917 c-31 -33 -29 -80 4 -106 15 -12 34 -21 44 -21 10 0 29
9 44 21 35 27 37 90 4 113 -32 23 -71 20 -96 -7z"/>
<path d="M16573 15880 c-46 -19 -57 -83 -20 -118 46 -44 120 -15 120 47 0 52
-53 90 -100 71z"/>
<path d="M2035 15687 l-70 -112 0 -88 0 -88 69 -31 c66 -29 70 -29 83 -12 18
25 19 444 1 444 -7 0 -44 -51 -83 -113z"/>
<path d="M2161 15598 c1 -79 1 -81 14 -53 22 47 18 135 -6 135 -5 0 -9 -37 -8
-82z"/>
<path d="M1897 15532 c-13 -14 -17 -38 -17 -95 0 -42 4 -77 8 -77 5 0 16 6 26
13 15 11 19 28 19 92 -1 83 -8 98 -36 67z"/>
<path d="M16388 15396 c-120 -27 -177 -46 -139 -46 7 0 10 -4 6 -9 -7 -12 61
-81 79 -81 8 0 23 15 34 34 25 43 76 81 130 97 39 11 52 23 35 32 -5 2 -70
-10 -145 -27z"/>
<path d="M3663 15362 c-18 -9 -33 -19 -33 -22 0 -3 13 -26 28 -52 21 -38 43
-57 102 -92 41 -24 76 -43 78 -42 6 6 -124 226 -133 225 -5 0 -25 -8 -42 -17z"/>
<path d="M12359 15232 c-129 -75 -508 -294 -842 -487 l-607 -350 0 -48 c0 -44
1 -47 20 -37 17 9 69 -18 342 -176 367 -213 719 -416 888 -512 63 -36 123 -72
133 -80 16 -14 17 -113 17 -1809 l0 -1793 23 -11 c20 -9 35 -4 101 35 43 25
84 46 91 46 7 0 26 11 42 24 29 24 1347 788 1444 837 31 16 59 36 63 45 11 27
7 69 -9 90 -12 16 -14 85 -15 432 l0 413 -31 17 c-54 29 -97 71 -108 105 -6
18 -33 160 -60 317 -28 157 -82 461 -121 675 -43 240 -68 402 -64 422 5 28 1
35 -47 73 -60 47 -95 66 -194 105 -126 49 -244 114 -407 221 -177 118 -276
203 -303 263 -17 38 -17 42 -1 66 20 30 26 28 126 -45 107 -77 131 -92 136
-87 3 2 -48 49 -113 103 -65 54 -135 116 -156 137 -69 69 -84 145 -33 168 l24
11 -24 36 c-41 60 -23 142 31 142 23 0 43 -15 278 -214 43 -36 80 -66 82 -66
14 0 -4 21 -94 114 -107 110 -134 151 -129 198 4 37 26 53 60 45 14 -4 95 -66
179 -138 141 -120 246 -205 276 -222 25 -15 21 12 -7 52 -97 133 -120 173
-120 207 0 44 15 74 39 74 19 0 245 -193 374 -319 43 -42 116 -126 162 -187
96 -128 211 -265 231 -277 12 -7 14 27 14 210 1 176 3 222 15 237 8 11 15 34
15 51 0 17 -7 40 -15 51 -9 12 -14 42 -15 80 0 45 -4 65 -17 76 -31 26 -1411
818 -1425 817 -7 0 -119 -62 -249 -137z"/>
<path d="M15995 14725 c-313 -54 -371 -68 -470 -116 -93 -44 -165 -101 -248
-196 -88 -101 -321 -415 -512 -691 l-168 -242 -61 33 -61 34 -1 -76 c-2 -91
-24 -181 -69 -278 l-34 -73 42 -24 c23 -13 183 -103 356 -200 l314 -176 26 22
c14 12 63 61 109 108 l82 85 -2 -119 -3 -118 165 -94 165 -93 7 62 c4 34 14
181 23 327 48 804 132 1168 339 1480 62 93 177 219 250 275 32 24 36 33 36 71
0 36 -3 44 -17 43 -10 -1 -130 -20 -268 -44z"/>
<path d="M17150 14694 c0 -14 -5 -34 -10 -44 -37 -69 -115 -405 -150 -647 -49
-340 -52 -419 -57 -1348 l-4 -880 171 -95 c195 -108 222 -121 236 -112 6 4
129 149 274 322 145 173 268 319 274 323 21 16 179 1 240 -23 128 -49 255
-224 292 -400 8 -41 16 -75 17 -76 1 -1 49 36 107 82 197 159 314 290 340 383
59 212 -195 1113 -505 1793 -113 249 -187 348 -304 412 -40 21 -898 336 -917
336 -2 0 -4 -12 -4 -26z"/>
<path d="M17865 11292 c-72 -48 -187 -127 -257 -175 -266 -184 -465 -244 -848
-256 l-205 -6 -155 -91 c-85 -51 -165 -95 -177 -99 -23 -6 -28 4 -26 53 1 10
-6 12 -20 7 -62 -18 -93 -16 -137 8 -55 30 -300 167 -563 315 -108 62 -200
112 -204 112 -6 0 3 -1385 11 -1490 2 -36 7 -148 11 -250 3 -102 8 -223 10
-270 2 -47 7 -146 10 -220 3 -74 8 -171 10 -215 3 -44 7 -129 10 -190 10 -189
25 -418 31 -465 l5 -45 -74 -42 c-41 -24 -77 -43 -80 -43 -4 0 -7 33 -7 74 l0
75 -57 34 c-32 19 -163 94 -290 168 l-233 134 35 20 c33 19 35 23 33 64 l-3
44 -130 75 c-71 41 -204 118 -295 170 -91 52 -171 100 -178 105 -10 8 4 20 53
49 64 37 67 37 97 22 l30 -16 -7 34 c-12 57 -74 173 -123 230 -81 95 -40 66
-789 549 -67 44 -125 79 -128 79 -5 0 -266 -150 -760 -435 -55 -32 -260 -150
-455 -263 -195 -113 -515 -297 -710 -410 -195 -112 -411 -237 -480 -277 -69
-39 -210 -121 -315 -182 -104 -60 -280 -162 -390 -225 -110 -63 -479 -276
-820 -473 -341 -197 -645 -373 -675 -390 -30 -17 -131 -76 -225 -130 -93 -54
-271 -156 -395 -228 -311 -179 -463 -267 -615 -355 -71 -42 -170 -99 -220
-127 -110 -63 -708 -408 -900 -520 -77 -44 -269 -155 -427 -246 l-287 -164 -1
-290 0 -291 1224 -706 1225 -707 338 196 c186 107 442 255 568 328 127 73 374
215 550 317 176 102 426 246 555 320 129 75 291 168 360 208 196 114 370 214
1580 912 1143 660 1711 988 2135 1233 911 527 1309 754 1313 750 2 -2 20 -145
38 -317 29 -263 62 -557 146 -1319 l11 -97 51 -30 c90 -55 159 -74 287 -79 95
-4 130 -2 196 15 103 26 181 60 187 81 14 47 154 990 190 1286 41 331 45 567
16 960 -9 118 -7 215 15 615 14 261 28 495 31 520 6 44 7 42 40 -85 395 -1519
501 -1900 944 -3380 l77 -260 54 -19 c85 -31 308 -29 409 2 78 25 175 70 224
105 l29 20 -7 251 c-4 138 -9 285 -11 326 -3 41 -7 127 -10 190 -27 562 -64
853 -185 1460 l-59 295 -6 315 c-3 173 -7 385 -10 470 -3 85 -7 272 -10 415
-3 143 -8 328 -10 410 -3 83 -7 256 -11 385 -3 129 -9 348 -14 485 -4 138 -6
346 -4 463 2 116 1 212 -4 212 -4 0 -66 -39 -137 -88z m-3694 -2737 c186 -107
344 -195 351 -195 7 0 27 9 44 19 l31 19 287 -165 287 -165 -3 -85 -3 -85
-135 -79 -135 -78 -3 82 -3 82 -271 155 c-149 85 -278 160 -286 166 -12 9 -8
14 22 32 32 19 36 26 36 60 l0 39 -187 108 c-104 60 -243 140 -310 179 -68 38
-123 73 -123 77 0 6 39 27 54 28 5 1 161 -87 347 -194z m-310 -184 l344 -199
39 22 39 23 81 -46 c45 -25 174 -100 289 -166 l207 -120 0 -82 0 -81 -137 -80
-138 -80 -3 79 -3 79 -92 54 c-51 29 -193 112 -317 183 -657 377 -860 496
-855 502 13 12 181 110 191 110 7 1 166 -89 355 -198z m-2194 66 c-1 -4 -32
-24 -69 -44 l-66 -36 -32 23 -32 23 73 42 73 42 28 -20 c16 -12 27 -25 25 -30z
m2028 -242 c198 -114 439 -252 535 -307 96 -56 207 -120 245 -143 l70 -41 3
-81 3 -80 -141 -82 c-77 -44 -142 -81 -145 -81 -3 0 -5 37 -5 83 l-1 82 -87
49 c-48 27 -139 79 -202 116 -63 37 -153 88 -199 115 l-83 48 36 19 c33 17 36
22 36 62 l0 44 -247 142 c-411 237 -379 216 -352 233 108 67 111 68 144 47 16
-10 192 -111 390 -225z m-1853 124 l30 -22 -73 -43 c-62 -36 -76 -41 -89 -30
-8 7 -24 18 -34 23 -16 9 -10 15 50 51 38 23 73 41 77 42 5 0 22 -10 39 -21z
m-474 -13 c37 -27 37 -26 -50 -75 l-56 -31 -37 21 -37 22 54 30 c41 23 88 52
94 56 0 1 15 -10 32 -23z m1867 -296 l346 -200 38 22 38 22 59 -33 c32 -19
161 -92 286 -165 l228 -131 0 -85 -1 -85 -131 -75 c-72 -41 -135 -76 -139 -78
-5 -2 -9 33 -11 78 l-3 82 -274 159 c-151 87 -278 162 -282 166 -5 5 7 17 26
27 31 17 35 24 35 60 0 40 -2 42 -63 77 -34 20 -174 101 -311 179 -248 143
-248 144 -226 162 12 10 26 18 30 18 5 0 164 -90 355 -200z m-1674 153 c16
-10 29 -20 29 -23 0 -3 -30 -23 -67 -44 l-67 -39 -33 18 c-18 10 -33 21 -33
24 0 7 120 79 133 80 5 1 22 -7 38 -16z m-465 -17 l35 -24 -73 -40 -73 -40
-30 18 c-16 11 -29 22 -28 26 1 5 118 80 131 83 2 1 19 -10 38 -23z m214 -165
c0 -7 -122 -81 -134 -81 -5 0 -21 9 -37 21 l-30 21 73 43 73 43 28 -20 c15
-11 27 -23 27 -27z m1610 -151 l347 -200 39 21 40 22 179 -103 c99 -57 228
-131 288 -164 l107 -61 -2 -85 -3 -85 -135 -78 -135 -77 -3 79 -3 79 -284 163
c-157 90 -285 166 -285 169 0 3 14 14 30 23 26 16 30 24 30 62 l0 43 -157 90
c-213 121 -457 263 -461 267 -3 3 47 34 57 35 2 0 160 -90 351 -200z m-2096
157 l29 -24 -66 -36 c-75 -42 -83 -43 -116 -18 l-24 18 24 16 c36 23 113 67
119 67 3 0 18 -11 34 -23z m190 -141 l29 -24 -39 -24 c-21 -14 -54 -33 -72
-42 -31 -16 -34 -16 -63 5 -17 11 -27 24 -24 27 8 8 129 80 135 81 3 0 18 -10
34 -23z m1591 -197 l348 -200 41 21 41 22 220 -127 c121 -70 251 -145 288
-167 l68 -39 -3 -82 -3 -81 -135 -78 c-74 -43 -138 -78 -142 -78 -4 0 -8 36
-10 81 l-3 81 -627 362 c-345 198 -628 364 -628 367 0 5 187 118 196 119 1 0
158 -90 349 -201z m-435 -22 c134 -77 631 -362 970 -558 l145 -84 3 -85 3 -85
-135 -78 c-75 -42 -138 -77 -141 -77 -3 0 -5 36 -5 79 l0 79 -157 90 c-249
142 -408 234 -412 238 -2 2 13 13 33 25 34 20 37 25 34 62 l-3 41 -170 98
c-93 54 -229 132 -302 173 -73 42 -135 80 -138 85 -5 8 99 78 120 79 6 1 75
-36 155 -82z m-194 -338 l349 -202 39 22 40 22 286 -164 285 -165 3 -83 2 -84
-134 -77 c-74 -43 -137 -78 -140 -78 -3 0 -6 35 -6 78 l0 77 -285 164 c-157
90 -285 167 -285 171 0 4 14 13 30 20 27 11 30 17 30 59 l0 46 -243 139 c-133
77 -273 157 -310 179 l-68 40 28 18 c15 9 29 18 30 18 0 1 158 -90 349 -200z
m-329 -173 c178 -102 334 -191 347 -197 21 -10 31 -8 61 10 l36 21 289 -167
290 -166 0 -81 0 -81 -132 -75 c-73 -41 -138 -76 -145 -78 -10 -3 -13 16 -13
76 l0 80 -122 70 c-68 38 -238 136 -378 217 -140 81 -369 212 -507 292 -139
80 -253 148 -253 152 0 8 193 120 200 116 3 -1 150 -87 327 -189z m73 -314
l625 -360 3 -85 3 -85 -141 -80 -140 -81 0 82 0 82 -285 163 c-157 90 -285
165 -285 167 0 2 16 12 35 24 31 18 35 25 35 60 0 45 47 13 -393 266 -125 72
-227 132 -227 135 0 10 125 80 135 76 6 -2 291 -166 635 -364z m-2697 87 c-37
-21 -72 -38 -76 -39 -5 0 -22 10 -39 21 l-30 22 73 42 73 43 34 -26 33 -25
-68 -38z m2021 -147 l343 -199 39 23 39 23 95 -56 c52 -30 182 -104 288 -165
l192 -111 0 -82 0 -83 -140 -80 -139 -81 -3 82 -3 81 -120 69 c-322 185 -431
249 -438 257 -5 4 5 16 23 26 28 17 31 23 28 63 -3 51 40 21 -385 266 -123 70
-223 132 -223 136 0 10 31 28 48 29 7 0 167 -89 356 -198z m-1792 67 l30 -22
-73 -42 -72 -43 -29 21 c-15 11 -28 23 -28 27 0 7 121 79 133 80 5 0 22 -10
39 -21z m-458 -22 c18 -13 15 -17 -52 -57 l-71 -42 -31 22 c-36 26 -36 26 45
73 61 36 67 36 109 4z m1936 -226 l345 -199 31 19 c17 10 37 19 44 19 7 0 141
-73 296 -162 l283 -163 1 -81 0 -81 -142 -81 -143 -82 -3 82 -3 83 -147 84
c-81 47 -209 121 -285 165 l-139 80 36 20 c32 19 36 25 36 63 l0 41 -247 143
c-137 78 -276 158 -310 178 -35 20 -63 39 -63 42 0 7 40 27 55 28 6 1 165 -89
355 -198z m-1751 88 c13 -11 22 -21 20 -23 -2 -2 -32 -20 -67 -41 -65 -38 -86
-39 -115 -7 -15 17 -13 20 46 55 72 42 83 43 116 16z m-472 -12 c36 -26 40
-20 -58 -76 l-57 -32 -28 26 c-16 15 -24 28 -19 31 6 2 35 20 65 39 30 19 58
35 61 35 3 0 19 -10 36 -23z m1908 -257 l345 -199 35 20 c19 11 41 19 48 17 8
-2 139 -75 291 -163 l277 -159 -3 -85 -3 -85 -135 -78 -135 -78 -5 82 -5 82
-626 361 c-344 198 -626 364 -628 369 -2 8 175 115 191 116 5 0 163 -90 353
-200z m-1695 91 c0 -4 -29 -24 -65 -45 l-65 -38 -36 22 -36 23 74 42 73 43 27
-20 c16 -11 28 -23 28 -27z m-487 6 l28 -22 -64 -38 c-35 -20 -70 -37 -78 -37
-16 0 -66 37 -59 43 9 7 135 77 140 77 3 0 18 -10 33 -23z m1912 -214 c133
-76 401 -230 598 -343 l357 -205 -2 -84 -3 -83 -135 -79 -135 -78 -5 80 -5 80
-282 162 c-155 89 -283 165 -283 169 0 4 14 14 30 23 26 14 30 21 30 59 l0 44
-282 163 c-156 89 -296 170 -311 179 l-28 17 68 41 68 40 40 -23 c22 -13 148
-86 280 -162z m-1720 72 c16 -13 27 -26 25 -28 -3 -2 -35 -20 -73 -41 -66 -36
-68 -37 -90 -19 -13 10 -25 22 -26 27 -2 7 113 83 129 85 3 0 18 -11 35 -24z
m1360 -315 l346 -199 42 20 42 21 255 -147 c140 -80 267 -154 282 -163 27 -16
28 -19 28 -102 l0 -85 -134 -77 c-74 -43 -137 -78 -140 -78 -3 0 -6 36 -6 80
0 72 -2 81 -22 93 -13 8 -81 48 -153 89 -315 181 -385 223 -385 230 0 4 14 14
30 23 26 14 30 21 30 58 l0 42 -208 119 c-114 66 -254 147 -311 180 l-103 59
23 18 c13 10 27 19 31 19 4 0 163 -90 353 -200z m-314 -181 l348 -201 40 22
39 22 286 -163 286 -164 0 -85 0 -85 -131 -75 c-72 -41 -135 -76 -139 -78 -5
-2 -10 33 -12 78 l-3 81 -235 136 c-129 74 -296 170 -370 212 -231 133 -593
342 -628 363 l-33 21 98 58 c54 32 100 58 102 58 2 1 161 -89 352 -200z m-407
-38 c94 -54 279 -160 411 -236 461 -265 570 -328 628 -362 l57 -34 0 -82 -1
-82 -132 -75 c-72 -41 -135 -76 -139 -78 -5 -2 -8 30 -8 71 0 58 -4 77 -17 89
-10 8 -130 79 -266 157 -281 160 -287 164 -287 171 0 3 14 13 30 22 26 15 30
23 30 60 0 50 43 19 -368 256 -139 79 -251 146 -250 147 11 10 125 74 132 75
5 0 86 -44 180 -99z m-215 -326 l344 -199 39 23 39 22 247 -142 c136 -79 264
-152 284 -163 l38 -21 0 -86 0 -87 -133 -76 c-73 -42 -136 -76 -140 -76 -4 0
-7 36 -7 79 l0 79 -187 108 c-104 59 -232 133 -286 164 l-98 57 35 23 c32 19
36 26 36 64 0 35 -4 45 -23 53 -31 14 -580 333 -591 343 -8 8 43 41 54 36 3
-2 160 -92 349 -201z m-291 -194 c173 -100 318 -181 322 -181 5 0 24 9 43 20
l35 21 283 -164 284 -164 3 -85 3 -85 -135 -77 c-73 -42 -137 -76 -140 -76 -3
0 -6 35 -6 78 l0 78 -247 142 c-137 78 -265 152 -287 165 l-38 24 36 22 c31
20 36 28 36 62 0 36 -3 40 -52 68 -321 183 -567 327 -568 333 0 4 12 14 28 22
24 13 30 12 57 -4 17 -10 171 -100 343 -199z m-337 -168 l341 -196 42 20 42
21 287 -166 287 -165 0 -81 0 -81 -134 -78 c-73 -42 -136 -77 -139 -77 -4 0
-7 35 -9 77 l-3 78 -360 207 c-749 431 -905 522 -905 528 1 8 183 109 198 110
7 0 166 -88 353 -197z m-108 -210 c579 -332 735 -422 765 -440 21 -13 23 -20
20 -99 l-3 -86 -125 -74 c-69 -40 -131 -73 -137 -74 -9 0 -13 22 -13 78 l0 78
-286 164 -286 164 36 20 c34 20 36 24 34 64 l-3 44 -307 176 c-169 98 -307
179 -308 182 0 4 116 76 128 79 2 1 221 -123 485 -276z m-524 -148 c186 -107
344 -195 352 -195 8 0 28 9 45 19 l32 19 53 -32 c30 -18 159 -92 287 -165
l233 -133 -3 -85 -3 -85 -135 -78 -135 -78 -3 83 c-2 74 -5 83 -25 92 -31 14
-530 303 -540 313 -5 4 8 17 27 28 32 19 36 26 36 61 l0 39 -97 55 c-128 72
-517 298 -522 303 -6 6 32 33 47 34 7 0 165 -88 351 -195z m-309 -184 l345
-199 33 19 c18 10 38 19 44 19 6 0 138 -73 294 -162 l284 -163 0 -82 0 -81
-140 -81 -140 -80 -157 91 c-87 50 -248 143 -358 206 -455 262 -515 297 -633
364 l-123 70 3 85 3 85 90 53 c50 29 95 54 100 54 6 1 166 -89 355 -198z"/>
<path d="M16277 5560 c-4 -20 -19 -37 -46 -54 -22 -14 -63 -54 -92 -88 -56
-67 -67 -78 -87 -78 -9 0 -10 11 -6 40 17 104 -31 130 -310 165 -95 13 -135
14 -152 6 -15 -7 -38 -41 -66 -97 -23 -48 -57 -102 -76 -120 -19 -19 -31 -34
-27 -34 17 0 -61 -72 -92 -85 -19 -8 -31 -19 -28 -27 6 -16 -79 -74 -122 -83
-21 -4 -33 -13 -33 -23 0 -22 -74 -64 -125 -71 -30 -5 -41 -11 -43 -26 -3 -23
-87 -75 -120 -75 -29 0 -52 -10 -52 -24 0 -6 -37 -31 -80 -55 -136 -75 -192
-157 -169 -246 6 -22 14 -65 19 -95 12 -89 30 -114 112 -154 104 -51 176 -68
316 -73 287 -12 528 66 747 242 161 129 246 181 345 211 171 51 251 86 285
124 18 20 20 35 19 179 -1 105 -6 180 -18 231 -9 41 -26 129 -37 195 -20 113
-31 145 -49 145 -4 0 -10 -13 -13 -30z"/>
<path d="M18345 5413 c24 -153 25 -167 16 -176 -12 -12 -31 30 -31 68 0 36
-33 49 -103 41 -95 -10 -310 -66 -363 -95 l-49 -26 -5 -70 -6 -70 -16 35 c-8
19 -21 65 -29 103 -7 37 -16 67 -20 67 -14 0 -21 -69 -14 -128 4 -31 17 -98
30 -147 29 -113 43 -280 55 -660 13 -421 42 -572 139 -712 37 -55 57 -73 105
-98 53 -26 69 -30 140 -29 62 1 98 8 150 28 200 77 318 193 345 340 36 194
-12 449 -143 761 -78 186 -102 281 -116 460 -14 165 -34 279 -55 311 -21 32
-35 30 -30 -3z"/>
<path d="M4090 5171 c-85 -48 -263 -147 -395 -221 -132 -73 -377 -210 -545
-303 -168 -94 -379 -212 -470 -262 -91 -50 -280 -156 -420 -235 -140 -78 -309
-173 -375 -210 l-120 -67 0 -339 0 -338 75 -44 c41 -25 291 -169 555 -322 264
-152 747 -431 1073 -619 l593 -343 147 85 c81 47 173 100 205 118 l57 33 0 61
0 61 423 244 c388 224 572 330 996 575 l153 89 48 -27 c26 -15 54 -27 61 -27
8 1 102 52 209 114 l195 113 3 192 2 191 -62 45 c-35 24 -387 265 -783 536
-396 270 -781 533 -855 584 -74 50 -236 161 -359 245 -123 84 -231 154 -240
156 -9 2 -86 -36 -171 -85z m313 -219 c25 -25 10 -55 -33 -71 -60 -20 -138 18
-114 57 28 44 109 52 147 14z m-443 -149 c27 -20 50 -40 50 -44 0 -4 -65 -44
-144 -89 l-144 -81 -61 43 c-33 24 -59 47 -58 51 4 14 281 167 294 162 7 -2
35 -21 63 -42z m844 -29 c9 -8 16 -18 16 -21 0 -17 -36 -43 -59 -43 -27 0 -71
25 -71 40 0 19 33 40 65 40 18 0 41 -7 49 -16z m211 -150 c21 -21 15 -36 -20
-53 -50 -24 -116 17 -86 53 18 21 85 21 106 0z m-1594 -125 c33 -22 57 -44 54
-48 -3 -5 -68 -45 -145 -90 l-140 -81 -57 41 c-32 22 -58 45 -58 51 0 11 259
166 278 167 4 1 35 -17 68 -40z m1156 -25 l34 -26 -46 -29 c-25 -16 -63 -38
-84 -48 l-38 -20 -37 25 c-21 14 -36 27 -34 29 5 6 163 95 167 95 2 0 19 -12
38 -26z m647 0 c24 -23 20 -33 -19 -49 -56 -24 -117 12 -85 50 16 20 84 19
104 -1z m190 -134 c37 -14 36 -57 -1 -67 -76 -20 -129 39 -61 67 30 12 32 12
62 0z m-2529 -146 c30 -20 55 -42 55 -48 0 -10 -247 -157 -276 -164 -16 -4
-124 67 -124 82 0 11 255 163 278 165 7 0 37 -15 67 -35z m2740 -6 c48 -22 25
-68 -35 -68 -58 0 -83 46 -37 68 29 14 41 14 72 0z m-1742 -147 c8 -9 8 -16 2
-18 -5 -2 -43 -23 -84 -47 l-75 -43 -37 26 c-27 19 -34 29 -27 39 6 6 14 12
18 12 4 0 37 17 71 39 63 38 65 38 92 22 16 -9 34 -22 40 -30z m657 2 l38 -28
-81 -47 c-45 -26 -86 -48 -90 -48 -5 0 -24 12 -43 26 l-35 27 83 48 c46 26 85
48 86 48 2 1 21 -11 42 -26z m432 -79 c21 -15 37 -28 36 -29 -2 -1 -40 -23
-85 -49 l-82 -46 -36 21 c-19 12 -35 25 -35 29 0 7 146 98 159 100 3 0 22 -12
43 -26z m-2528 -143 c25 -28 12 -57 -30 -71 -77 -26 -146 26 -98 74 23 24 106
21 128 -3z m3539 5 c43 -33 3 -86 -65 -86 -39 0 -78 27 -78 54 0 38 104 61
143 32z m-1302 -114 l37 -28 -85 -48 -84 -48 -41 27 -40 27 83 48 c46 27 86
49 89 49 3 0 21 -12 41 -27z m-1896 -52 c17 -19 17 -21 0 -40 -32 -35 -115
-21 -115 20 0 41 83 55 115 20z m1040 -34 c17 -13 28 -26 25 -29 -3 -3 -40
-26 -84 -51 l-78 -46 -39 28 -38 28 77 46 c42 26 84 47 92 47 8 1 29 -10 45
-23z m1884 -71 c28 -20 51 -40 51 -43 0 -4 -65 -44 -145 -90 l-144 -83 -58 41
c-32 23 -58 46 -58 51 0 13 277 170 292 165 6 -3 34 -21 62 -41z m-1453 -9
l36 -24 -49 -28 c-26 -15 -62 -35 -79 -46 -17 -10 -38 -18 -45 -18 -19 0 -76
50 -64 56 6 2 39 22 75 44 36 21 71 39 78 40 7 0 29 -11 48 -24z m-1266 -31
c18 -22 8 -48 -23 -59 -56 -20 -114 29 -71 61 24 17 79 17 94 -2z m210 -150
c32 -38 -25 -78 -81 -55 -30 13 -38 37 -17 58 17 17 83 15 98 -3z m767 -71
l34 -26 -38 -20 c-21 -11 -60 -33 -88 -48 l-50 -28 -37 28 -36 27 76 46 c42
25 83 46 91 46 8 1 29 -11 48 -25z m1205 -46 c71 -50 81 -35 -105 -143 l-128
-74 -57 40 c-31 22 -57 46 -57 52 0 11 260 167 278 167 5 0 36 -19 69 -42z
m-1764 -30 c31 -26 0 -61 -54 -61 -37 0 -54 14 -54 47 0 12 5 16 16 12 8 -3
12 -2 9 3 -13 22 56 20 83 -1z m2402 -45 c0 -5 -64 -44 -143 -89 -78 -45 -230
-132 -337 -194 -595 -345 -763 -440 -773 -440 -19 0 7 21 71 56 37 21 111 64
165 96 53 32 99 58 101 58 2 0 33 17 67 38 35 22 84 50 109 64 141 79 697 401
705 409 11 11 35 12 35 2z m-2199 -102 c34 -28 16 -55 -40 -59 -46 -4 -75 16
-65 43 14 35 71 44 105 16z m2199 1 c0 -4 -105 -68 -232 -142 -128 -74 -386
-222 -573 -330 -458 -264 -455 -263 -455 -252 0 6 111 74 248 153 136 78 326
188 422 244 96 56 250 145 341 198 91 52 181 105 200 116 36 22 49 26 49 13z
m-1174 -129 c29 -21 52 -42 51 -48 -4 -12 -266 -165 -283 -165 -6 0 -37 19
-68 41 -39 28 -54 45 -48 51 17 17 266 157 280 157 8 1 38 -16 68 -36z m-623
-244 c41 -22 46 -40 17 -69 -28 -28 -98 -27 -128 0 -28 27 -28 34 4 59 30 23
74 27 107 10z"/>
<path d="M3765 4759 c-66 -38 -121 -73 -123 -77 -1 -5 17 -22 40 -39 l43 -31
118 68 c65 37 123 72 128 77 7 7 -3 18 -28 34 -21 13 -42 26 -48 30 -5 3 -64
-25 -130 -62z"/>
<path d="M3227 4447 c-139 -78 -141 -80 -63 -122 l33 -18 128 73 127 74 -24
18 c-12 9 -27 18 -31 18 -5 0 -5 6 -1 13 4 6 4 9 -1 5 -4 -4 -15 -3 -24 2 -13
6 -50 -10 -144 -63z"/>
<path d="M2697 4142 c-64 -37 -118 -71 -120 -77 -1 -5 17 -22 40 -38 l41 -30
111 63 c159 89 151 81 100 118 -24 18 -45 32 -48 32 -4 -1 -59 -31 -124 -68z"/>
<path d="M5589 3553 c-24 -14 -82 -47 -128 -73 l-84 -48 43 -31 c24 -17 47
-31 52 -31 13 0 58 24 166 87 l93 55 -33 25 c-58 43 -61 44 -109 16z"/>
<path d="M4973 3197 c-135 -78 -136 -81 -60 -122 l32 -17 101 58 c56 33 112
66 125 75 l23 16 -43 31 c-24 18 -47 32 -50 31 -3 0 -61 -32 -128 -72z"/>
<path d="M4447 2892 c-65 -37 -119 -71 -120 -77 -1 -5 17 -22 40 -38 l41 -29
130 73 129 74 -47 33 c-25 17 -48 32 -51 32 -2 0 -57 -30 -122 -68z"/>
<path d="M11830 3739 c-24 -16 -50 -29 -57 -29 -32 0 -4 -21 120 -92 72 -42
170 -98 217 -126 47 -27 128 -74 180 -104 156 -90 342 -198 575 -333 230 -134
273 -150 325 -123 31 17 37 49 13 70 -10 8 -65 42 -123 75 -58 33 -348 200
-644 372 -297 172 -544 314 -550 316 -6 2 -31 -10 -56 -26z"/>
<path d="M14150 3556 c0 -2 7 -7 16 -10 8 -3 12 -2 9 4 -6 10 -25 14 -25 6z"/>
<path d="M13259 3503 c-8 -9 -35 -26 -60 -38 l-46 -21 206 -118 c221 -128 267
-144 316 -112 33 21 32 50 -2 74 -21 14 -240 141 -394 228 -4 2 -13 -4 -20
-13z"/>
<path d="M10900 3204 c-7 -7 -34 -24 -60 -37 l-49 -25 212 -122 c117 -68 237
-138 267 -156 281 -166 832 -480 860 -490 67 -23 149 13 124 54 -6 9 -76 55
-155 101 -1121 651 -1188 689 -1199 675z"/>
<path d="M8852 3068 l3 -83 60 -38 c33 -22 222 -132 420 -246 198 -114 767
-443 1265 -730 498 -288 920 -525 938 -528 l32 -6 0 82 c0 64 -3 81 -15 81
-20 0 -136 62 -360 193 -227 132 -324 188 -510 295 -77 44 -156 89 -175 101
-19 11 -52 30 -73 41 -21 12 -125 72 -232 135 -107 63 -197 115 -200 115 -3 0
-24 12 -48 27 -23 15 -71 43 -107 63 -36 20 -119 68 -185 107 -66 38 -259 150
-430 248 -170 98 -327 188 -348 202 l-38 24 3 -83z"/>
<path d="M12289 2943 c-8 -9 -34 -25 -58 -36 -40 -17 -42 -20 -25 -30 10 -6
102 -58 204 -117 102 -59 198 -110 213 -114 65 -16 138 31 107 69 -6 8 -73 49
-148 91 -75 43 -165 95 -200 116 -71 43 -75 44 -93 21z"/>
<path d="M11325 2384 c-11 -9 -37 -24 -59 -34 l-38 -18 23 -15 c13 -8 107 -63
209 -121 164 -94 190 -106 232 -106 58 0 95 28 79 59 -10 17 -401 251 -418
251 -5 0 -17 -8 -28 -16z"/>
</g>
</svg>
